<svg width="102" height="102" viewBox="0 0 102 102" fill="none" xmlns="http://www.w3.org/2000/svg">
<g clip-path="url(#clip0_777_17561)">
<path d="M51 102C79.1665 102 102 79.1665 102 51C102 22.8335 79.1665 0 51 0C22.8335 0 0 22.8335 0 51C0 79.1665 22.8335 102 51 102Z" fill="#FFB600"/>
<path d="M50.9992 100.367C78.2635 100.367 100.366 78.2645 100.366 51.0002C100.366 23.7359 78.2635 1.63379 50.9992 1.63379C23.7349 1.63379 1.63281 23.7359 1.63281 51.0002C1.63281 78.2645 23.7349 100.367 50.9992 100.367Z" fill="#964529"/>
<path d="M51.0001 99.3263C77.6899 99.3263 99.3263 77.6899 99.3263 51.0001C99.3263 24.3102 77.6899 2.67383 51.0001 2.67383C24.3102 2.67383 2.67383 24.3102 2.67383 51.0001C2.67383 77.6899 24.3102 99.3263 51.0001 99.3263Z" fill="#DB6D00"/>
<path fill-rule="evenodd" clip-rule="evenodd" d="M22.2985 45.5533C22.0097 45.2894 21.7045 45.025 21.4238 44.7612C21.1431 44.4973 20.8548 44.233 20.5659 43.9691L19.7075 43.1531C19.5671 43.0128 19.4186 42.8893 19.2782 42.7484C19.1379 42.6249 18.9731 42.4845 18.8327 42.3605C17.6936 41.2796 16.5479 40.1987 15.4246 39.1172C16.5882 40.1818 17.7273 41.2388 18.8909 42.3192L19.2951 42.7239C19.4355 42.8637 19.584 42.9877 19.7243 43.1281L20.5822 43.9202C20.8711 44.184 21.1518 44.4484 21.4406 44.7362C21.7295 45.0239 22.0102 45.2889 22.2991 45.5522L22.2985 45.5533ZM7.18023 45.3901C7.18023 45.3901 11.3228 45.8187 13.3448 46.1076C15.2178 46.372 21.0773 47.2712 21.0773 47.2712L7.18023 45.3901ZM7.18023 45.3901C8.34385 45.4891 9.50746 45.6125 10.6711 45.7366C11.2651 45.7942 11.8347 45.8601 12.4043 45.9177L13.2785 46.0173C13.5673 46.0581 13.848 46.0994 14.1369 46.1408L17.6033 46.6935L19.3359 46.9823C19.9055 47.0813 20.475 47.1891 21.0691 47.2881C20.4995 47.2304 19.9055 47.1477 19.3359 47.065L17.6033 46.8175L14.1369 46.3061C13.848 46.2648 13.5673 46.2066 13.2785 46.1658L12.4037 46.0652C11.8342 46.0075 11.2401 45.9248 10.6705 45.8584C9.50692 45.7186 8.3433 45.5696 7.17969 45.3884L7.18023 45.3901ZM20.6649 48.3505C20.6649 48.3505 16.2416 49.4733 14.7478 49.9025C13.279 50.3067 8.83073 51.6602 8.83073 51.6602L20.6644 48.351L20.6649 48.3505Z" fill="#CFB66C"/>
<path fill-rule="evenodd" clip-rule="evenodd" d="M20.6637 48.3506C19.6818 48.6394 18.7053 48.9202 17.7093 49.1845L14.7548 49.9766C13.7729 50.2655 12.7964 50.5462 11.8172 50.835L10.3484 51.2392C9.86152 51.3796 9.36648 51.5031 8.86328 51.644C9.34962 51.4808 9.8452 51.3138 10.3321 51.1734L11.8009 50.7034C12.7828 50.3977 13.7593 50.1088 14.7385 49.8036C15.7367 49.5561 16.7192 49.2917 17.7174 49.0523C18.6662 48.813 19.6649 48.5742 20.6637 48.3511V48.3506ZM9.44917 54.3835C9.93551 54.2019 15.5474 51.5863 16.8514 50.9754C17.5042 50.6697 19.4016 49.9962 19.4016 49.9962L9.44917 54.3835Z" fill="#CFB66C"/>
<path fill-rule="evenodd" clip-rule="evenodd" d="M9.44976 54.3835C9.87843 54.2203 10.2832 54.0207 10.6955 53.8308L11.9168 53.2613L14.3681 52.0813C15.1841 51.6935 15.9772 51.2653 16.8188 50.9009C17.248 50.7197 17.6772 50.5712 18.1059 50.4308L18.7587 50.2247C18.9812 50.167 19.1879 50.1006 19.4115 50.043C18.5955 50.4308 17.7365 50.7611 16.9194 51.1402C16.1034 51.545 15.2689 51.8752 14.4268 52.238L11.9348 53.3353C11.0981 53.6742 10.2821 54.037 9.44922 54.3835H9.44976ZM9.99376 56.6683C9.99376 56.6683 15.0769 53.6894 16.8264 52.732C17.7425 52.2206 20.7051 50.7513 20.7051 50.7513L9.99376 56.6683Z" fill="#CFB66C"/>
<path fill-rule="evenodd" clip-rule="evenodd" d="M9.99414 56.6697C10.852 56.1415 11.7268 55.6051 12.6015 55.0606L13.9071 54.268C14.3527 54.0041 14.7819 53.7566 15.2361 53.4928C15.6817 53.2284 16.1109 52.9646 16.5646 52.717C16.7806 52.5837 17.0069 52.4678 17.2413 52.3705L17.9344 52.024C18.8505 51.5784 19.7666 51.1242 20.7322 50.7363C19.8574 51.2896 18.9576 51.7601 18.0584 52.2465C17.6129 52.494 17.1586 52.717 16.7131 52.9646C16.2675 53.2121 15.8383 53.4765 15.3841 53.7158C14.9386 53.9797 14.5093 54.2272 14.0556 54.4665L12.7103 55.2009L9.99523 56.6697H9.99414ZM20.6642 51.4044C20.6642 51.4044 17.5035 53.8306 16.4803 54.6063C15.457 55.3821 12.4449 57.5608 12.4449 57.5608L20.6642 51.4044V51.4044Z" fill="#CFB66C"/>
<path fill-rule="evenodd" clip-rule="evenodd" d="M38.8029 70.9705L37.1855 67.9089L38.1261 64.0797L44.8353 61.4886L41.9798 55.6297L43.391 49.7127L46.0402 44.4141L54.2269 43.127L60.2424 37.3916L73.2321 38.3735L75.7818 52.2624L70.8717 69.7493L68.0744 78.8025L56.7353 79.2317L51.4704 75.5842L45.3058 73.0089L38.8029 70.9705Z" fill="#E2CC85"/>
<path fill-rule="evenodd" clip-rule="evenodd" d="M58.6925 70.8717C58.6925 70.8717 57.1242 71.5898 54.4493 71.4244C53.6752 70.3848 48.2537 69.8979 48.2537 69.8979C48.2537 69.8979 47.577 69.6918 46.3802 70.1868C45.1757 70.6764 44.0366 70.616 42.972 70.8799C41.9074 71.1437 40.8504 69.7576 40.0344 69.4687C39.2184 69.1635 38.1364 68.4291 38.1364 68.4291L35.8516 68.2061L31.2635 66.2667L23.9744 59.0049L21.9937 62.1057L21.3828 65.9431L23.5866 70.4904L29.52 75.8955L41.0898 78.8331L47.9474 76.8127L56.5383 73.1815L58.6925 70.8712V70.8717Z" fill="#F1D789"/>
<path fill-rule="evenodd" clip-rule="evenodd" d="M17.5865 45.2071L19.0553 40.7594L20.8053 37.8871L26.4411 37.4165L24.7493 42.3517L20.0377 50.7363L21.9934 58.2212L18.5276 59.9539L17.4624 58.3203L16.6045 54.5737L16.5469 50.3648L17.5865 45.2071Z" fill="#F4ECB4"/>
<path fill-rule="evenodd" clip-rule="evenodd" d="M23.9078 70.5667L22.8268 69.0566C22.8268 69.0566 22.538 68.3385 22.7034 67.7113C22.8666 67.0759 22.8432 67.0345 22.761 66.7952C22.6789 66.5558 21.9853 65.7306 22.0266 65.0206C22.0674 64.3026 21.969 64.0632 22.4966 63.4942C23.0493 62.9415 22.8845 61.984 22.8845 61.984L23.6026 62.4296L23.7658 62.182C23.7658 62.182 24.0296 62.3882 24.0296 62.7103C24.0873 62.2647 23.8479 60.2013 24.3925 59.7313C24.937 59.2613 25.9026 61.9345 25.9026 61.9345L25.3086 58.0558L23.7816 54.0786L21.0665 50.4474L20.9033 46.4447V46.0981C20.9033 46.0981 19.657 48.013 19.3104 49.5253C19.0629 50.5649 19.657 51.8276 19.5335 53.3214C19.4339 54.807 19.3104 54.6912 19.6733 55.2798C20.0361 55.8684 20.9196 57.0788 20.573 57.9535C20.2679 58.7048 19.2277 58.1766 19.2277 58.1766C19.2277 58.1766 19.0216 58.7869 18.7409 59.01C18.6418 58.6471 18.5347 58.4159 18.3367 58.194C18.3198 58.3343 18.279 58.5242 18.279 58.5242C18.279 58.5242 18.0973 57.9546 17.9156 57.2365C17.6686 56.2796 17.4042 55.017 17.1649 54.3403C17.0659 54.7282 16.8184 55.9081 16.8184 55.9081L16.9587 57.724L17.6354 60.216L18.2882 61.848L18.9236 63.8451L19.4758 65.1866L19.9213 66.2098L20.3092 68.5126L22.1822 70.4927L23.181 70.9388L23.9067 70.5673L23.9078 70.5667Z" fill="#F3E19D"/>
<path fill-rule="evenodd" clip-rule="evenodd" d="M18.5676 41.5758C18.5676 41.5758 17.2223 43.8606 16.835 46.1639C16.4476 48.4672 16.1006 50.9011 16.3454 54.0367C16.5929 57.1979 17.0634 59.1367 17.4432 60.5234C18.096 62.8261 19.7867 66.0281 19.7867 66.0281L19.8444 65.9041C19.5602 65.3654 19.3334 64.7983 19.1676 64.2122C18.9446 63.3375 18.8619 62.2979 18.6557 61.8273C18.474 61.3573 18.1689 60.9526 18.0203 60.3748C17.88 59.8221 17.8571 58.9474 17.4263 58.2957C17.2446 58.0313 17.0216 57.3382 16.9557 56.6452C16.8731 55.6051 16.9971 54.4414 16.8981 53.4845C16.7164 51.8917 16.5929 50.8108 16.7577 49.9768C16.9226 49.1429 17.7815 46.7754 18.3098 44.8937C18.6563 43.6887 18.4496 42.6736 19.085 41.6253C19.7203 40.5858 20.1088 39.6697 20.2486 39.0343C20.4118 38.4565 18.5654 41.5758 18.5654 41.5758H18.5676Z" fill="#F2E8B0"/>
<path fill-rule="evenodd" clip-rule="evenodd" d="M24.947 40.6597C24.947 40.6597 24.2539 40.8664 23.9237 41.2292C23.5935 41.5758 23.4532 41.8646 23.0076 42.4505C22.5621 43.0364 22.5371 43.5151 22.1737 44.2495C21.8108 44.9676 21.0101 46.0485 20.911 46.4364C20.812 46.8243 20.6472 48.6396 20.441 49.498C20.2593 50.3565 20.6472 51.4129 20.6472 51.4129L21.1172 51.3134C21.1172 51.3134 21.1172 51.9243 21.5878 52.3372C22.0578 52.7414 22.1405 50.9668 22.1405 50.9668L23.8981 45.0334L26.5469 43.2344L26.8357 41.7819L24.9459 40.6597H24.947Z" fill="#F5EEC0"/>
<path fill-rule="evenodd" clip-rule="evenodd" d="M26.235 43.3502C26.235 43.3502 24.9887 43.4323 24.3783 43.8784C24.1308 44.0595 24.0318 44.2081 23.768 44.4311C23.2811 44.8353 22.7855 45.2068 22.5467 45.7367C22.2823 46.2644 21.9934 47.0651 21.7954 48.5753C21.7127 49.2107 21.7127 49.7966 21.6551 50.3085C21.5724 51.0015 21.4489 51.5542 21.5147 51.9405C21.5974 52.7325 22.4145 53.1454 22.4939 54.0447L24.1858 53.1868L25.7786 46.9063L29.1623 44.7847L27.2474 42.6392L26.2328 43.3464L26.235 43.3502Z" fill="#E6DB9D"/>
<path fill-rule="evenodd" clip-rule="evenodd" d="M17.3091 85.6415C17.3162 85.5794 17.3233 85.5174 17.3304 85.4538C17.5773 83.3322 17.6192 81.7241 17.8004 80.7172C18.0642 79.2897 18.2459 78.7588 18.2046 78.2246C18.1469 77.3667 18.0811 76.7394 18.1638 76.079C18.2872 75.2043 19.1457 74.1647 19.1212 73.4466C19.1043 72.877 18.8155 72.506 18.568 72.1595C18.3204 71.813 18.1224 71.5241 18.1224 71.5241C18.1224 71.5241 19.8143 70.3605 19.7979 65.6729C19.8325 65.6826 19.8657 65.6965 19.8969 65.7142L20.7304 68.0822L21.2999 68.7753L23.4868 72.852L26.3009 75.584L30.4598 78.3812L33.0677 81.2193L33.3316 88.7869L29.9234 93.2101L29.3653 94.2209C24.931 91.9948 20.8647 89.1011 17.3086 85.6409L17.3091 85.6415Z" fill="#E5CB7A"/>
<path fill-rule="evenodd" clip-rule="evenodd" d="M27.7207 92.8808C27.7207 92.8808 27.7784 91.9402 28.5541 91.3293C28.6781 91.5355 28.7603 91.7341 28.7358 91.882C28.8762 91.635 29.8581 90.0504 32.0781 89.6375C34.2982 89.2333 34.8346 87.616 34.8346 87.616L39.5462 83.3331L44.935 78.3734L51.4875 76.0707L54.5497 75.3194C54.5497 75.3194 54.6074 75.5424 54.492 76.0375C55.0611 75.9967 56.3237 75.7078 57.6358 75.2454C58.164 75.0392 58.6596 74.9566 58.9235 75.2291C59.3113 75.5919 59.369 76.4504 59.3935 76.9617C60.0289 76.8214 60.7633 76.211 61.3519 76.2687C62.293 76.3677 63.1264 77.4736 64.0838 77.4736C65.3465 77.4736 65.9155 76.6979 66.7989 76.087C67.3272 75.7241 68.086 75.271 68.5153 74.9647C69.5385 74.2134 80.3658 70.9043 80.3658 70.9043L84.1618 71.1518L84.7727 75.2286L84.4463 85.8855C84.406 85.9241 84.3658 85.9644 84.325 86.003L67.065 95.0176L43.1398 98.6853C37.7805 97.8097 32.6087 96.0307 27.8447 93.4243L27.7223 92.8803L27.7207 92.8808Z" fill="#D8C173"/>
<path fill-rule="evenodd" clip-rule="evenodd" d="M18.7598 86.9968C19.0998 86.2858 19.4055 85.6912 19.4593 85.4785C19.5018 85.9072 19.5796 86.8478 19.7362 87.8476C19.4073 87.568 19.0818 87.2842 18.7598 86.9963V86.9968Z" fill="#F1D789"/>
<path fill-rule="evenodd" clip-rule="evenodd" d="M36.2362 97.0262L39.3305 96.1656L39.5943 96.2483C39.5943 96.2483 39.7347 96.331 39.7347 96.6112C40.1226 96.3887 40.4528 96.4295 40.6921 96.2815C40.8156 96.5453 40.9391 97.4201 41.4842 97.5273C42.0532 97.6513 42.6641 97.2797 43.2832 96.8097C43.8936 96.3228 44.5888 95.7119 45.1149 95.4644C45.3079 95.8193 45.4788 96.1858 45.6268 96.5617C46.3198 96.009 47.5248 93.7644 49.2411 93.8052C49.7372 92.6329 50.5659 91.6317 51.6249 90.9253C53.2177 89.8444 54.216 89.7617 55.4623 89.8607C55.9573 89.2177 56.5673 88.6721 57.2613 88.2515C57.4675 88.3342 58.037 88.6807 58.747 88.3505C59.465 88.0209 60.2734 86.7414 61.338 86.5765C61.9117 86.4976 62.495 86.6201 62.9885 86.9231C62.9885 86.9231 66.0893 83.8446 68.2289 82.8213C68.1462 82.5738 67.9814 81.6414 70.4897 79.578C70.6301 79.702 70.5311 80.0485 70.6301 80.0676C70.6709 80.0676 71.2829 79.8037 72.0575 79.2092C73.015 78.4916 74.1617 77.7404 74.8548 77.5342C76.1604 77.1463 77.5454 77.9384 77.5454 77.9384C77.6632 77.8558 77.7944 77.7943 77.9333 77.7567C78.263 77.699 78.5023 77.6577 78.684 77.5935C78.6677 78.0227 78.907 78.7571 78.684 79.3925C78.9424 79.5378 79.216 79.654 79.5 79.739C79.3602 80.0442 79.0545 80.8199 78.5431 81.1915C78.9718 81.3977 79.0294 81.637 79.6404 81.8443C79.3928 82.1908 78.9876 82.7854 78.807 83.1499C78.6253 83.5378 77.973 85.1469 77.6841 85.7573C77.379 86.3682 76.9666 87.4905 76.768 87.7157C76.5695 87.9409 75.8519 88.8956 75.2992 89.3656C75.7888 89.1839 77.7918 88.5736 78.6416 88.3424C78.3886 88.7134 77.1064 90.6157 75.8737 92.4452C69.9716 95.9828 63.3832 98.2219 56.5478 99.0132C49.7123 99.8045 42.7867 99.1299 36.2324 97.0344L36.2362 97.0262Z" fill="#E0CD81"/>
<path fill-rule="evenodd" clip-rule="evenodd" d="M26.4377 43.1274C26.4377 43.1274 25.7202 43.1274 25.5799 43.2264C25.4395 43.3254 26.2979 43.5321 26.5618 43.6311C26.8256 43.7301 27.3952 44.1838 27.5437 44.5472C27.684 44.8938 32.7014 46.9153 32.7014 46.9153L36.2499 46.7336L37.4733 45.0434L35.1461 43.005L36.7781 38.1938L34.6162 38.5404L29.4172 41.6412L26.8093 42.64L26.4377 43.1274Z" fill="#DFC57C"/>
<path fill-rule="evenodd" clip-rule="evenodd" d="M34.2316 44.72C34.2829 44.8031 34.3551 44.8712 34.4411 44.9175C34.527 44.9638 34.6236 44.9867 34.7212 44.9839C35.4556 44.9839 36.1318 45.1656 36.4125 45.5366C36.883 46.1312 38.187 48.0292 38.187 48.0292L41.3063 49.1515L41.5076 45.4784L38.0994 43.1104L34.2207 44.5378V44.7195H34.2294L34.2316 44.72Z" fill="#E5CC7C"/>
<path fill-rule="evenodd" clip-rule="evenodd" d="M33.6201 46.0819C33.6201 46.0819 34.1891 46.1232 34.9072 45.8588C35.6253 45.5945 36.8052 45.0254 37.3171 45.2485C38.0346 45.5537 37.8861 46.5111 38.6624 47.3701C39.1324 47.8983 39.9909 47.882 40.4777 48.4516C40.9646 49.0211 42.6396 48.7567 42.6396 48.7567L43.275 52.1839L40.7253 55.4523L39.8913 59.5122H36.4434L33.2937 58.2626L31.7422 54.509L32.5179 50.713L33.6201 46.0819Z" fill="#D2C281"/>
<path fill-rule="evenodd" clip-rule="evenodd" d="M40.2895 46.2465C40.375 46.2728 40.4639 46.2868 40.5534 46.2878C40.4544 46.3705 40.2476 46.5517 40.3303 47.0222C40.413 47.4928 40.6769 48.0868 40.4544 48.4497C40.632 48.6439 40.7644 48.875 40.8422 49.1264C40.9826 49.5312 41.0239 49.9022 41.9395 49.9604C41.8073 50.0417 41.6855 50.1387 41.5766 50.2492C41.5766 50.2492 42.212 50.8019 42.5341 51.3133C42.8637 51.2992 43.7385 51.0272 43.7385 51.0272L43.9202 51.1512L44.308 50.988C44.308 50.988 43.9452 50.8476 44.209 49.9647C44.4566 49.189 44.6796 49.2303 44.6986 49.1727C44.7177 49.115 44.8803 48.2979 44.8803 47.9677C45.0038 47.539 45.1028 46.2351 45.1028 46.2351L44.839 43.3551L43.3539 42.4553L42.1462 41.2896L41.0071 43.4351L40.2569 44.1831L40.1992 46.0398L40.2895 46.2465Z" fill="#E2C270"/>
<path fill-rule="evenodd" clip-rule="evenodd" d="M43.8613 43.8371C43.8613 43.8371 44.1252 44.5878 44.2247 45.1656C44.2598 45.0533 44.2792 44.9367 44.2824 44.819C44.2824 44.819 44.4886 45.9582 44.5294 46.4287C44.612 46.4119 44.6926 46.3874 44.7111 46.4695C44.7296 46.5517 44.9178 47.4683 44.8743 47.9797C45.2179 47.4127 45.6934 46.9372 46.2604 46.5936C46.5906 46.3869 46.9784 46.1644 47.3832 46.1475C48.0186 46.1312 48.4804 46.5522 49.2399 46.5522C51.0715 46.5522 52.7307 45.2069 53.952 44.7946C54.8512 44.4888 55.627 44.2663 56.1715 43.7708C56.4359 43.5483 56.9064 43.0532 57.3351 42.3183C57.9047 41.3391 58.4987 40.4866 59.0933 40.3795C58.8243 40.4289 58.5506 40.4482 58.2773 40.4371C58.2773 40.4371 58.459 40.2554 58.7669 40.0079C59.0748 39.7604 59.4437 39.4552 59.9713 39.4552C60.9125 39.4552 61.3825 39.595 61.9107 39.595C62.4389 39.5787 62.7441 39.4552 62.7441 39.4552C62.7441 39.4552 63.2974 39.8431 64.5431 39.8431C65.7894 39.8594 66.6228 39.9666 67.2751 40.0248C67.9273 40.083 70.1137 39.8431 70.7409 39.8616C71.1498 39.8773 71.5514 39.9756 71.9214 40.1504L69.8993 34.2752L62.6359 27.9268L58.3116 30.9884L51.6596 37.6399L45.223 40.0248L43.8776 41.5349V43.8371H43.8613Z" fill="#CCB360"/>
<path fill-rule="evenodd" clip-rule="evenodd" d="M58.3043 40.4697C58.3043 40.4697 58.486 40.2886 58.7906 40.041C59.0952 39.7935 59.4679 39.4878 59.9956 39.4878C60.9361 39.4878 61.4067 39.6281 61.9349 39.6281C62.4632 39.6118 62.7683 39.4878 62.7683 39.4878C62.7683 39.4878 63.3221 39.8751 64.5673 39.8751C65.8136 39.8914 66.6471 39.9986 67.2993 40.0563C67.9516 40.1139 70.1379 39.8751 70.7651 39.8931C71.1739 39.9085 71.5754 40.0067 71.9451 40.1819L71.029 37.5327L69.9649 35.5112L66.9278 32.1851C66.9278 32.1851 63.283 30.0396 63.2552 30.0233C63.2389 30.007 61.9926 29.6768 61.9926 29.6768L58.6916 31.6738L55.6963 39.4231L55.6387 41.0551L57.5775 41.9712C58.0644 41.1552 58.6013 40.5024 59.1045 40.4197C58.6503 40.4692 58.3037 40.4692 58.3037 40.4692L58.3043 40.4697Z" fill="#D5B457"/>
<path fill-rule="evenodd" clip-rule="evenodd" d="M58.2632 41.0233C57.9743 41.0396 57.7355 40.9819 57.6692 40.7758C57.4216 40.0827 57.2236 39.9837 57.0164 39.9837C56.8091 39.9837 56.5295 40.4292 56.3636 40.47C56.1976 40.5108 56.0007 39.9587 56.0007 39.9587L55.819 39.876C55.819 39.876 54.7544 40.569 54.0037 41.3861C53.253 42.2032 52.023 43.5899 51.4703 43.8368C50.9176 44.0838 49.019 44.167 48.3695 44.3074C47.7199 44.4478 46.9997 44.9183 46.9007 45.0255C46.8017 45.1326 47.1901 45.248 47.2477 45.3551C47.3054 45.4542 46.6118 45.4128 46.5541 45.5183C46.5133 45.601 46.7173 46.071 46.8185 46.3104C46.9956 46.2224 47.1899 46.1745 47.3876 46.1701C48.023 46.1537 48.4854 46.5748 49.2442 46.5748C51.0764 46.5748 52.7351 45.2295 53.9564 44.8166C54.8561 44.5114 55.6319 44.2884 56.1764 43.7933C56.4403 43.5708 56.9108 43.0752 57.34 42.3408C57.6534 41.8376 57.9591 41.3671 58.2648 41.0206L58.2632 41.0233Z" fill="#D2B257"/>
<path fill-rule="evenodd" clip-rule="evenodd" d="M31.9865 81.8642C31.9865 81.8642 31.8233 81.2533 30.311 79.6773C29.8818 79.2318 29.6179 78.8613 29.3291 78.5964C28.611 77.9191 28.1899 77.7379 27.6786 77.3501C26.5563 76.5167 25.335 76.5167 24.3944 75.4934C23.4539 74.4701 22.3577 72.515 21.5961 70.5169C20.8454 68.5199 20.6387 67.8845 20.6387 67.8268C20.6387 67.7691 20.8454 67.3813 21.1092 67.4389C21.3731 67.4966 21.3731 68.008 21.4394 68.132C21.5709 68.3344 21.72 68.5248 21.885 68.701C22.2728 69.1471 22.8256 69.6802 23.1063 70.4755C23.0486 69.7988 22.8174 69.0481 22.8174 69.0481C22.8174 69.0481 24.2699 69.9642 25.5075 70.9211C26.7538 71.8785 27.2651 72.2087 27.6291 72.8191C27.993 73.4295 28.8504 75.0392 29.2611 75.5097C29.6718 75.9803 35.2995 77.7543 35.2995 77.7543L37.9765 79.7502L39.3055 82.6633L38.2654 84.2953L36.2683 84.7245L33.025 83.2721L31.9865 81.8636V81.8642Z" fill="#D2B159"/>
<path fill-rule="evenodd" clip-rule="evenodd" d="M24.7812 71.829C24.7812 71.829 25.458 72.9099 27.1085 73.9332C28.5941 74.833 30.9459 75.6501 33.0424 76.137C34.2468 76.4258 35.4518 76.6483 36.5327 76.6652C39.4459 76.706 41.451 75.8731 43.9355 75.6006C45.2808 75.4602 46.9313 75.3531 48.6476 74.9478C50.8508 74.4195 52.1548 73.825 53.9293 72.9894C55.2164 72.3953 56.3969 71.9498 57.3538 71.3802C58.6991 70.5882 59.681 69.7052 60.8202 69.4414C60.6798 69.8293 60.5313 70.5223 59.409 71.2404C60.0031 71.2235 60.8202 71.1828 60.8202 71.1828C60.8202 71.1828 60.0281 71.6528 58.6333 72.7092C57.7748 73.362 56.6363 74.4669 55.4726 75.2013C54.7214 75.6718 53.9043 76.0173 53.3679 76.2991C52.0623 77.0172 51.5357 77.38 50.6778 78.2575C50.983 78.2412 51.008 78.2575 51.008 78.2575C51.008 78.2575 49.9266 78.3978 49.1514 78.8102C48.9882 78.8102 48.7053 78.7525 48.2102 78.8929C47.8224 79.0163 47.3105 79.2976 46.7828 79.4456C46.0315 79.6686 45.7845 79.5696 45.7845 79.5696L45.908 79.8171C45.908 79.8171 44.9288 79.8003 44.6024 79.8334C44.6601 79.8498 44.6438 79.8748 44.6438 79.8748C44.5864 79.8844 44.5312 79.9039 44.4806 79.9324C44.3235 80.0342 44.1507 80.1094 43.9692 80.1549C43.8702 80.1713 43.7875 80.1713 43.6635 80.1963C43.7048 80.2953 44.0269 80.8491 44.1754 81.1755C44.0519 81.2582 42.1947 82.6612 42.1947 82.6612C42.2523 82.7518 42.2994 82.8487 42.335 82.95C42.3927 83.1312 42.4177 83.3956 42.4754 83.519C42.6152 83.7666 42.6979 83.8079 42.6979 83.8079C42.6979 83.8079 42.4754 83.8492 42.087 83.9483C41.7573 84.0309 41.3526 84.1708 40.7814 84.2534C40.6061 84.2762 40.4298 84.29 40.2532 84.2948C40.3358 84.4765 40.6987 85.1695 40.0301 85.9698C39.3615 86.77 39.1554 86.8864 38.9492 87.3978C38.8454 87.3193 38.7349 87.2501 38.619 87.191C38.3965 87.092 38.0908 86.9441 37.9836 86.7455C37.9211 87.0101 37.8384 87.2694 37.7361 87.5212C37.5299 88.0739 37.2247 88.619 37.167 89.0314C36.944 88.7839 36.5317 88.297 35.9621 88.396C35.3925 88.495 34.9388 89.2707 34.8398 89.4938C34.8398 89.3534 34.7408 89.2463 34.7163 89.4111C34.6995 89.5928 34.3861 91.4903 32.6366 93.0254C32.6203 92.6376 32.6203 91.7791 32.5789 91.499C32.4157 91.6622 32.2161 91.9032 31.0275 92.4151C29.8638 92.9264 30.0483 93.4383 30.0483 93.4383C30.0483 93.4383 29.9493 92.6223 30.5765 91.7628C31.2119 90.9049 31.5997 90.5002 31.5997 90.4344C31.5895 90.3673 31.5609 90.3044 31.5171 90.2527C31.4344 90.17 31.2695 90.071 31.2695 90.0052C31.3685 89.9644 32.3505 89.4938 32.2928 88.5195C32.2351 87.6453 31.8641 87.191 31.5997 86.8695C31.5589 86.8282 31.9882 86.523 31.93 86.424C31.8886 86.3663 31.3609 85.9779 31.2946 85.7712C31.3102 85.6478 31.3379 85.5263 31.3773 85.4084C31.4349 85.2267 31.4763 85.1026 31.4599 84.9791C31.4186 84.773 31.1956 84.2034 31.1297 84.1457C31.1874 84.162 31.5997 84.1457 31.5997 84.1457C31.5997 84.1457 31.2701 83.6175 31.2119 83.37C31.1537 83.1225 31.0302 82.4702 30.9644 82.3467C31.1047 82.363 31.4512 82.3875 31.4512 82.3467C31.4681 82.2227 31.146 82.0165 31.288 81.8571C31.387 81.8734 31.5769 81.9561 31.7581 82.1873C31.659 81.9229 31.4942 81.4116 31.1471 81.2054C31.3103 81.1477 31.8652 80.9987 32.3521 81.2876C32.839 81.5764 33.0049 81.9806 33.0049 81.9806C33.0049 81.9806 33.2938 82.2036 33.7398 82.5339C34.2512 82.938 34.9029 83.5131 35.943 83.92C36.1661 84.044 36.7351 84.044 37.148 83.9613C37.3278 83.9185 37.5001 83.849 37.6594 83.7551C37.7169 83.7213 37.7778 83.6935 37.8411 83.6724C37.7523 83.4944 37.6503 83.3233 37.5359 83.1605C37.6762 83.1605 37.8411 83.1774 37.8411 83.1774C37.8411 83.1774 37.9401 82.9544 37.4945 82.5246C37.5935 82.4256 37.7176 82.3614 37.7176 82.1944C37.5772 82.1781 37.3297 81.9719 37.272 81.8892C37.3542 81.8315 37.4782 81.6417 37.6186 81.584C37.4945 81.485 37.1893 81.0721 37.049 81.0313C37.1831 80.9816 37.3128 80.9208 37.4369 80.8496C37.4369 80.8496 36.7438 80.6679 36.5208 80.5194C36.2977 80.3562 35.9681 80.0739 35.7701 79.9912C35.5633 79.9085 35.2005 79.8677 35.052 79.7023C35.1918 79.7437 35.4148 79.7023 35.5802 79.7023C35.7037 79.7023 35.7619 79.7187 35.8027 79.7187C35.7864 79.661 35.7864 79.537 36.1084 79.4962C36.2633 79.4728 36.4136 79.4255 36.554 79.3558C36.554 79.3558 36.2482 79.3395 35.9012 79.0093C35.5541 78.6791 35.2658 78.4152 35.0677 78.3739C34.8616 78.3325 34.4737 78.5142 34.2343 78.4974C33.9041 78.4566 33.7638 78.2912 33.7638 78.2912C33.7638 78.2912 32.6665 78.3902 30.2321 76.9051C28.1274 75.6174 27.2113 74.4788 27.2113 74.4788C27.0143 74.4074 26.8239 74.3189 26.6423 74.2145C25.8502 73.8021 24.7524 72.9437 24.7856 71.8209L24.7812 71.829Z" fill="#C2A44D"/>
<path fill-rule="evenodd" clip-rule="evenodd" d="M55.142 22.2981C55.333 22.3601 55.5026 22.4745 55.6316 22.6283C56.0195 23.0738 56.267 23.9154 55.3841 24.8152C55.7306 24.9386 55.8737 24.9783 56.1762 24.9386C55.871 25.302 55.1779 26.0778 55.1366 26.7545C55.0952 27.3072 55.4418 27.4726 55.4418 27.4726C55.4418 27.4726 54.9136 28.083 54.8891 29.1046C55.1385 28.8233 55.4115 28.5638 55.7051 28.3288C56.316 27.842 57.1576 27.2893 57.7271 26.9427C57.7194 27.088 57.7389 27.2334 57.7848 27.3714C57.7848 27.3714 58.8488 26.4967 59.7432 26.8851C60.1474 27.0668 59.9657 27.6358 59.9657 27.6358C59.9657 27.6358 60.5189 27.4296 60.9068 27.8175C61.2947 28.2054 61.843 29.2058 62.1243 29.5936C62.2478 29.7753 62.5698 30.1219 62.8995 30.6583C63.3498 31.4092 63.7259 32.2023 64.0223 33.0263C64.0386 32.5971 64.1458 31.929 65.3676 32.3495C66.5889 32.7788 67.975 33.6785 69.1386 35.4503C70.3022 37.2222 70.5905 39.2224 71.1764 39.984C71.7705 40.7184 72.3814 41.9397 72.4227 42.4516C72.4641 42.9635 72.241 44.6135 73.4623 49.0781C73.8088 47.692 74.3371 44.6135 74.3371 44.6135L74.6259 41.8984L74.9561 33.4974L66.1836 26.2094L59.3259 21.2329L54.8613 21.6621L55.1415 22.2975L55.142 22.2981Z" fill="#CAA13E"/>
<path fill-rule="evenodd" clip-rule="evenodd" d="M71.4412 34.8002C71.4412 34.8002 71.3172 33.9842 69.2543 32.597C67.1909 31.2272 65.5818 31.2272 64.0966 30.0636C62.9575 29.1475 61.7694 27.0428 60.9958 26.3497C60.2446 25.6648 60.1211 23.6841 60.1211 23.6841L62.6545 21.5625L66.4222 16.1165L69.6074 12.6094L71.1338 14.731L73.2554 17.223L74.4354 22.224L74.8646 29.5441L71.4374 34.8008L71.4412 34.8002Z" fill="#B59544"/>
<path fill-rule="evenodd" clip-rule="evenodd" d="M73.992 43.5744C74.0545 42.4643 73.9174 41.352 73.5873 40.2903C73.0433 38.5985 71.8546 35.5945 71.3025 34.4695C71.0794 33.2232 71.2448 33.1242 71.4842 32.9838C71.7235 32.8435 72.6233 32.331 73.1162 30.5331C73.609 28.7352 75.1382 28.6765 75.1382 28.6765L76.0788 27.9834L77.5068 31.5564L78.7526 34.7834L79.1404 37.251L79.4293 39.3552L78.7526 43.8035L75.4108 46.8237L73.9915 43.5744H73.992Z" fill="#C89D3A"/>
<path fill-rule="evenodd" clip-rule="evenodd" d="M27.3574 93.154V93.0626C27.4269 93.0192 27.4882 92.9639 27.5386 92.8994C27.5962 92.8167 27.6381 92.7177 27.6789 92.6932C27.7616 92.6519 28.1495 92.53 28.3557 92.5692C28.5618 92.6083 29.1069 92.833 29.3958 92.8167C29.9898 92.8004 30.6829 92.3461 31.7807 92.5528C33.4312 92.858 33.8191 93.9803 34.7765 94.6157C35.4293 95.0618 36.1049 94.8632 36.2039 94.8632H36.4264C36.4678 94.8632 36.773 94.5167 36.9383 94.5336C37.2686 94.5499 37.3012 94.8224 37.5074 94.8387C37.9943 94.8964 38.9354 94.5912 39.4059 94.7152C39.5455 94.759 39.6724 94.8358 39.7758 94.9391C39.8792 95.0424 39.9561 95.1693 40 95.3088C40.099 95.6139 40.0163 96.0018 39.7769 96.2248C39.2656 96.6949 38.7787 97.1409 38.6797 97.5304C38.8056 97.6265 38.9265 97.7289 39.042 97.8373C34.9588 96.7969 31.0303 95.224 27.3574 93.1589V93.154Z" fill="#CEB052"/>
<path fill-rule="evenodd" clip-rule="evenodd" d="M71.3008 76.6653C71.3008 76.6653 72.5879 74.949 73.034 74.0987C73.4795 73.2223 71.6228 62.1247 71.6228 62.1247L75.353 49.9032L75.2535 45.9255C75.2535 45.9255 75.4352 42.2529 75.8644 40.6601C76.3763 41.5762 77.9691 42.6822 78.3157 43.268C78.4789 42.1452 79.0332 39.7772 78.9511 37.252C79.2562 37.722 79.9906 42.451 79.9906 42.451L80.725 45.6361L81.6825 49.0198L82.7471 52.5933L83.3825 55.0609L83.7453 55.6549L84.0511 56.6945L84.3399 57.8173L85.1733 60.4497L85.6629 62.6116L86.0508 66.5317C86.1352 66.8318 86.1959 67.1381 86.2325 67.4478C86.2488 67.877 86.1748 68.1245 86.1748 68.199C86.1748 68.2736 86.3152 69.1396 86.2575 69.7919C86.1748 70.4447 86.1748 70.9555 85.6629 71.4239C85.151 71.8922 84.8295 74.6917 84.8295 74.6917L83.9134 74.0813C83.9134 74.0813 84.0951 73.2473 83.6659 72.4885C83.2367 71.7296 82.4033 71.5724 81.9327 71.6964C81.4627 71.7954 80.5221 71.9434 80.2164 72.2078C79.9275 72.4716 79.2182 73.2887 78.5659 73.6602C77.7499 74.1498 76.4204 74.1885 75.711 74.3533C74.9929 74.5165 74.2008 75.0061 73.3669 75.5746C72.713 75.9979 72.0227 76.362 71.304 76.6626V76.6626L71.3008 76.6653Z" fill="#CCA847"/>
<path fill-rule="evenodd" clip-rule="evenodd" d="M71.3008 94.6968C71.3008 94.6968 71.3552 94.7321 71.4602 94.7898C77.3232 92.0429 82.5764 88.1492 86.9098 83.3386C86.8624 81.6685 86.801 79.9566 86.7335 79.3223C86.5937 77.9769 86.6927 76.6072 86.6514 75.8151C86.61 75.023 86.1645 71.796 85.9583 70.9626C85.7353 70.1292 85.3055 69.7163 85.2402 69.7163C85.1826 69.7332 84.8355 71.2847 84.8355 71.6747C84.8355 72.0648 84.7528 73.0037 84.7528 73.2431C84.6951 73.2262 84.6707 73.0799 84.6707 73.02C84.588 73.2262 84.489 73.5896 84.4476 73.6309C84.4063 73.6723 84.5053 73.2844 84.4476 73.2017C84.39 73.119 84.2844 73.1604 84.3073 72.9542C84.317 72.8319 84.3363 72.7106 84.3649 72.5913C84.3649 72.5913 84.1174 72.9542 83.9363 73.8785C83.7546 74.7945 83.7546 74.8196 83.6887 74.9017C83.6311 75.0013 83.3009 75.3309 83.284 75.455C83.2677 75.6775 83.5897 75.9005 83.6142 76.024C83.6305 76.2307 83.3254 77.1876 83.2263 77.656C83.1273 78.1244 83.1687 79.0421 83.0631 79.5127C82.9805 79.9419 82.8999 80.1894 82.6176 80.3705C82.8238 80.4119 83.0218 80.4696 83.0218 80.4696C83.0218 80.4696 83.3107 81.6908 82.5763 82.731C82.3124 83.0938 82.2466 83.2592 81.9659 83.5894C81.4126 84.1998 80.9834 84.895 80.9421 85.3471C80.9135 85.2136 80.8943 85.0784 80.8844 84.9423C80.8844 84.9423 80.0265 85.9411 79.6631 86.5107C79.1931 87.2451 78.5409 87.2037 78.3575 87.3854C78.1742 87.5671 78.1345 87.8968 78.1943 88.1612C78.0311 88.202 77.7243 88.2602 77.5176 88.8956C77.4186 89.2252 77.1711 89.5484 76.7832 89.7703C76.3953 89.9923 75.9248 90.0592 75.6854 90.1169C75.8916 90.1745 75.9743 90.1745 76.0733 90.2403C75.9498 90.4465 75.3802 90.7686 74.7448 91.1815C74.1094 91.5693 73.8037 92.1384 73.6471 92.5099C73.4839 92.8564 73.2429 93.0795 72.855 93.1208C73.0182 93.2198 73.2597 93.4505 73.3832 93.525C73.2015 93.5664 72.8936 93.5664 72.3436 94.0369C71.7659 94.5156 71.5679 94.656 71.3035 94.6973L71.3008 94.6968Z" fill="#C39D3C"/>
<path fill-rule="evenodd" clip-rule="evenodd" d="M59.8191 98.5211C60.1351 98.2997 60.4774 98.1182 60.838 97.981C62.1251 97.4696 63.4868 97.3706 64.0232 97.2058C64.5351 97.0426 64.9393 96.8173 65.5746 96.6938C65.5578 96.8386 65.5436 96.9746 65.5284 97.1029C63.6551 97.6918 61.7476 98.1655 59.8164 98.5211H59.8191Z" fill="#D2BA6B"/>
<path fill-rule="evenodd" clip-rule="evenodd" d="M83.5581 64.6664C83.5581 64.6664 83.2942 66.0939 82.8237 66.9937C82.3531 67.8934 81.8445 69.1392 81.8445 69.1392C81.8475 68.8585 81.8807 68.5789 81.9435 68.3052C81.3494 68.6518 79.9051 69.4857 79.4955 69.8567C79.1076 70.2033 78.4553 70.8142 78.2905 71.103C78.6784 69.9644 79.0826 68.9412 79.1489 68.4706C78.5549 68.8998 75.7816 71.1857 74.3378 72.6959L69.84 76.3352C69.321 76.6152 68.7865 76.8655 68.239 77.0849C67.4638 77.4145 66.5477 77.6952 65.871 77.9596C66.0527 77.4727 66.341 77.043 66.7457 76.6306C67.175 76.2264 68.4621 74.8316 68.6601 74.1826C68.8418 73.5059 68.8831 73.1017 68.6438 72.5321C68.4207 72.5898 67.9094 72.6148 67.5628 72.7138C67.2163 72.8128 66.8447 73.1838 66.8447 73.1838C66.8447 73.1838 67.1086 71.6737 67.6782 70.2462C67.2489 70.2626 66.5145 70.386 66.5145 70.386C66.5145 70.386 67.5378 68.6697 69.2889 67.4735C68.7526 67.5876 68.2279 67.7504 67.7211 67.9598C66.6979 68.389 65.5756 69.0244 64.7422 69.3709C65.2122 68.7181 68.5132 64.0071 70.4776 59.6165C72.436 55.2346 73.1677 54.1123 73.5969 51.7606C73.8194 50.597 73.7601 48.8774 73.8194 47.3373C73.877 45.8103 74.0669 44.4405 73.9434 43.5244C74.4548 44.1598 76.3696 45.9507 76.4355 49.9534C76.4931 53.9556 74.6038 59.3613 72.5981 62.2739C73.0877 62.4143 74.3563 62.5796 75.6597 60.3155C76.9632 58.0514 76.9474 57.4193 77.4179 56.4781C77.4756 56.9487 77.4587 57.1135 77.4587 57.1135C77.4587 57.1135 79.3573 54.8113 80.2565 51.9145C80.4382 53.1608 80.9746 54.2586 80.1325 56.5445C79.3818 58.6074 78.3999 59.1111 78.3999 59.1111C78.3999 59.1111 78.8867 59.0284 79.6043 58.5992C79.7283 58.9044 79.7038 59.252 79.91 59.3749C80.1162 59.4979 80.3969 59.7052 80.4382 59.9032C80.6607 59.573 81.0072 59.1519 81.115 58.8386C81.0323 59.4914 80.9746 62.3457 81.2782 63.7982C81.9141 63.7405 82.5658 63.6992 83.0113 62.5519C82.7062 63.6747 82.7062 64.3509 82.9123 65.3083C83.2507 65.0777 83.5559 64.6648 83.5559 64.6648L83.5581 64.6664Z" fill="#C0993A"/>
<path fill-rule="evenodd" clip-rule="evenodd" d="M62.117 19.1786C62.117 19.1786 61.4816 19.4424 60.4007 19.4424C59.4601 19.4424 59.724 19.0796 58.2552 19.0796C55.9943 19.0796 48.0965 20.3852 46.7099 20.3667C45.8101 20.3504 49.7465 20.7546 49.7465 20.7546L59.8067 20.8949L61.8282 20.7317L62.5794 19.2031L62.117 19.1786Z" fill="#A88F33"/>
<path fill-rule="evenodd" clip-rule="evenodd" d="M36.0308 38.8443C36.0308 38.8443 34.7431 39.8262 34.1986 40.5775C33.654 41.3287 33.3652 41.8232 32.7461 42.4342C32.8914 42.4397 33.0366 42.4202 33.1753 42.3765C33.1753 42.3765 33.1753 42.5397 33.0763 42.5827C33.1619 42.5731 33.2485 42.5828 33.3298 42.611C33.4111 42.6393 33.4851 42.6853 33.5463 42.7459C33.3646 42.8449 32.8696 43.3405 33.2575 43.9263C33.5463 44.3719 34.1572 44.4127 34.1572 44.4127C34.1572 44.4127 34.0169 44.8174 34.6028 44.7761C35.8654 44.7184 37.2765 44.1652 37.9282 44.3055C38.581 44.4687 38.952 44.5286 39.4139 45.3293C39.9035 46.1214 40.33 46.2454 40.33 46.2454C40.33 46.2454 40.6189 45.5105 40.553 44.4132C40.7899 43.8218 40.9212 43.1934 40.9409 42.5566L40.5117 39.3959L38.6387 37.0273L36.2125 38.3727L36.0308 38.8427V38.8443Z" fill="#E3C571"/>
<path fill-rule="evenodd" clip-rule="evenodd" d="M38.332 38.3736C38.332 38.3736 38.5137 38.8028 39.2732 38.8436C39.1905 39.0253 39.1905 39.0504 39.2155 39.1902C39.2318 39.3305 39.2563 39.5367 39.2563 39.5367C39.3399 39.4962 39.4155 39.4409 39.4793 39.3735C39.5207 39.5552 39.438 39.8435 39.4793 40.0502C39.5048 40.1759 39.5463 40.2979 39.6028 40.4131C39.6149 40.3849 39.6287 40.3574 39.6442 40.3309C39.6605 40.2896 39.8074 40.7765 40.2137 41.1469C40.2134 41.09 40.2274 41.0338 40.2545 40.9837C40.2608 41.0872 40.295 41.1871 40.3535 41.2726C40.3231 41.2581 40.2954 41.2386 40.2714 41.2149C40.2714 41.2149 40.3122 42.5205 40.5352 43.1956C40.5725 43.152 40.6056 43.105 40.6342 43.0553C40.6342 43.0145 40.6179 43.4187 40.5766 43.7081C40.5189 43.9969 40.5603 44.4011 40.5603 44.4011C40.709 44.284 40.8725 44.1869 41.0466 44.1123C41.2941 44.0127 41.6994 43.7075 41.9464 43.0308C42.0896 42.6476 42.2001 42.2528 42.2766 41.8509C42.3564 42.0045 42.4114 42.1697 42.4398 42.3405C42.4566 42.5466 42.8445 42.4395 42.8445 42.4395L42.9272 41.5397L43.4168 39.5013L43.8623 38.2387L46.0079 34.8969L49.8844 31.9114L53.2681 32.6872L56.123 28.8085L51.2047 25.854L46.5502 26.3409L42.3261 32.1916L38.9429 37.4983L38.332 38.3731V38.3736Z" fill="#D8B65B"/>
<path fill-rule="evenodd" clip-rule="evenodd" d="M62.7108 29.9068C62.7108 29.9068 62.4219 29.9644 61.5885 30.3964C60.7551 30.8283 60.1774 30.9654 59.8553 31.6008C59.5333 32.2362 59.5088 32.7399 59.5088 32.7399C59.5088 32.7399 60.0784 32.4924 60.4086 32.4097C60.7551 32.3276 61.143 32.3521 61.1016 32.4924C61.062 32.5886 61.0068 32.6778 60.9384 32.7562C60.9384 32.7562 61.5912 32.7399 61.5738 33.062C61.5564 33.384 61.4503 33.7387 61.3269 33.8954C61.2028 34.0586 60.6915 34.3001 60.6338 34.49C60.4934 34.8778 60.6915 34.8942 60.6169 35.2075C60.5593 35.5132 60.2873 36.1073 59.3957 37.1469C58.4796 38.187 58.0901 38.9214 58.0901 38.9214C58.0901 38.9214 57.6445 38.088 57.4133 37.3699C57.2501 37.4521 56.3737 37.9389 56.3737 37.9389L54.3435 30.8669L54.3843 30.3964C54.3843 30.3964 54.566 30.1739 54.6074 29.761C54.3022 29.662 54.2608 29.5793 53.8561 29.192C53.4514 28.8046 53.1217 28.3335 52.4455 28.0115C52.3465 27.8298 52.2225 27.5828 51.7274 27.4833C51.2324 27.3837 50.9354 27.3021 50.9354 27.3021C50.9354 27.3021 51.1992 27.2025 51.3232 26.9964C51.0175 27.0377 50.7705 27.1367 50.102 27.1204C49.4252 27.1035 49.3507 27.0791 48.9797 27.1367C48.6087 27.1944 48.1637 27.3598 47.9978 26.7902C47.8161 26.6498 47.4282 26.7739 47.098 27.2602C46.7678 27.7465 46.6525 28.135 46.0171 28.3248C45.9724 28.6049 45.8743 28.8738 45.7282 29.1169C45.5465 29.4226 45.2576 29.7278 44.8698 30.1815C44.2589 30.8996 44.3579 32.0795 43.3841 32.9793C42.4022 33.8785 43.5473 30.4867 43.5473 30.4867L45.1151 26.7331L49.5797 22.3675L56.5119 21.8975L57.1886 25.4879L60.5723 26.6515L62.7097 29.9111L62.7108 29.9068Z" fill="#D3AE4D"/>
<path fill-rule="evenodd" clip-rule="evenodd" d="M63.8086 30.699L60.8955 26.4987L58.8572 24.9304C58.8572 24.9304 57.4047 22.2572 57.3057 22.1745C57.223 22.1168 55.8532 21.9683 54.9784 21.9106L55.1416 22.3148C55.3326 22.3769 55.5022 22.4913 55.6312 22.645C56.0191 23.0906 56.2666 23.9321 55.3837 24.8319C55.7302 24.9554 55.8733 24.9951 56.1758 24.9554C55.8706 25.3188 55.1775 26.0945 55.1362 26.7713C55.0949 27.324 55.4414 27.4888 55.4414 27.4888C55.4414 27.4888 54.9132 28.0997 54.8887 29.1208C55.1381 28.8395 55.4111 28.58 55.7047 28.3451C56.3156 27.8555 57.1572 27.3049 57.7267 26.9584C57.719 27.1038 57.7385 27.2494 57.7844 27.3876C57.7844 27.3876 58.8484 26.5129 59.7428 26.9008C60.147 27.0825 59.9653 27.652 59.9653 27.652C59.9653 27.652 60.5185 27.4458 60.9064 27.8337C61.2943 28.2216 61.847 29.2198 62.1277 29.6082C62.2512 29.7899 62.5732 30.1365 62.9029 30.6723C63.3534 31.4234 63.7294 32.2167 64.0257 33.0409C64.042 32.7107 64.1084 32.2488 64.6785 32.2488L63.8119 30.6973L63.8086 30.699Z" fill="#CAA13E"/>
<path fill-rule="evenodd" clip-rule="evenodd" d="M20.1366 42.6324C20.1366 42.6324 19.9304 42.1204 20.1366 41.1222C20.3427 40.124 20.6648 39.6534 20.7719 38.1846C20.8791 36.7158 21.8366 34.8836 21.8366 34.8836L24.4853 33.6792L26.3588 34.1906L26.9115 36.6995L24.543 38.0051C24.543 38.0051 24.4195 38.5578 23.7509 39.0033C23.0823 39.4489 22.1581 39.7954 21.9356 40.2496C21.8026 40.5278 21.7055 40.8217 21.6467 41.1244C21.6467 41.1244 20.97 40.984 20.5658 41.4296C20.1366 41.8838 20.1529 42.288 20.1366 42.6345V42.6324Z" fill="#F4EFC8"/>
<path fill-rule="evenodd" clip-rule="evenodd" d="M25.483 41.9634C25.483 41.9634 25.26 42.1038 25.0951 42.453C24.9319 42.1892 24.5419 40.6208 24.5256 39.2097C24.5092 37.7986 24.4249 37.4488 24.7513 36.9624C25.0777 36.4761 26.3578 35.9637 26.1761 35.0878C25.9944 34.2544 25.2349 33.9079 24.3025 34.1472C23.6497 34.3104 23.1639 35.6987 22.4872 36.3918C21.9753 36.92 21.3649 36.8373 21.2001 37.1262C20.9771 37.5141 21.1832 37.9019 21.1174 38.1494C21.1005 38.2321 20.8944 38.6777 20.5228 39.2141C19.7721 40.295 18.5013 41.822 18.3359 43.1918C18.3936 42.416 18.3528 42.3997 18.559 41.5413L18.4349 41.3351L19.2509 38.6614L19.7792 36.4582L20.9596 32.7687L23.0388 28.9977L25.0609 26.7363L27.1651 26.8767L27.4126 30.0373L28.6175 35.9713L31.1509 39.0906L27.0905 41.8231L25.4814 41.9634H25.483Z" fill="#EBCC73"/>
<path fill-rule="evenodd" clip-rule="evenodd" d="M26.7462 43.0847C26.7462 43.0847 26.3997 43.1674 26.2756 43.1016C26.1516 43.0358 26.0287 42.9613 26.0695 42.8786C26.1103 42.7959 26.3333 42.6561 26.3333 42.5897C26.3379 42.5297 26.3189 42.4703 26.2804 42.4241C26.2419 42.3779 26.1869 42.3485 26.1271 42.3422C25.9373 42.3177 25.8796 42.4412 25.8796 42.4412C25.8796 42.4412 25.6979 42.3014 25.5499 42.278C25.6375 42.2673 25.7256 42.2616 25.8138 42.2611C25.5857 42.1578 25.3438 42.0884 25.0957 42.0549C25.3019 41.9315 25.7066 41.5681 25.9705 41.5681C26.2343 41.5681 26.3997 41.5273 26.3583 41.3869C26.317 41.2466 26.1108 41.0404 25.8883 40.9577C25.9705 40.8587 26.0287 40.7102 25.8306 40.3049C25.6239 39.9007 25.7066 39.6282 25.773 39.5297C25.8306 39.4057 26.0368 39.1832 26.1358 39.0428C26.2348 38.9025 26.3175 38.7126 26.4824 38.6136C26.565 38.5559 26.8289 38.4504 27.0933 38.3498C27.3821 38.2508 27.6215 38.1267 27.7863 38.2508C27.968 38.3742 27.8853 38.5396 27.8853 38.5396C27.8853 38.5396 28.4549 38.3329 28.9663 38.5973C29.4782 38.8443 30.7245 39.0015 30.7245 39.0015L31.1711 39.9012L28.2166 42.4347L26.9954 43.0456L26.7478 43.0864L26.7462 43.0847Z" fill="#E5C66B"/>
<path fill-rule="evenodd" clip-rule="evenodd" d="M30.8482 38.9433C30.8482 38.9433 29.9321 39.5543 29.7259 39.7767C29.8494 39.7936 30.0556 39.8763 29.9729 39.9998C29.8739 40.1233 29.2799 40.5525 28.9497 40.9572C28.6031 41.3614 28.2729 41.8733 28.1576 42.1208C28.0341 42.3433 27.093 42.9956 26.7715 43.0777C27.4482 43.0777 28.8099 42.2443 29.3212 42.2443C29.3049 42.4919 29.4616 42.7726 29.7504 42.797C30.0393 42.8215 30.8727 42.9787 31.995 42.2857C33.1172 41.6089 32.7462 41.1052 33.2163 40.7755C34.116 40.1809 34.4789 39.6527 34.9739 39.3231C35.469 38.9934 35.7252 38.9183 35.7252 38.9183C35.7252 38.9183 35.7415 38.6708 35.8884 38.6958C35.9286 38.7004 35.9668 38.7159 35.9988 38.7407C36.0308 38.7654 36.0555 38.7984 36.0701 38.8362C36.0701 38.8362 36.9285 38.2253 38.0285 38.0604C38.0028 38.049 37.9823 38.0284 37.9708 38.0028C37.9708 38.0028 38.053 37.9614 38.0698 37.9201C38.0698 37.9201 38.1275 37.8374 38.1688 37.8787C38.2102 37.9201 38.2678 38.2253 38.3505 38.3493C38.5322 38.2666 38.8787 37.4909 38.8787 37.4909L39.7127 35.106V32.9272L39.0599 33.0513L34.1639 35.1304L31.1926 38.2089L30.846 38.9433H30.8482Z" fill="#E6BD62"/>
<path fill-rule="evenodd" clip-rule="evenodd" d="M44.9432 28.2566C45.208 28.1923 45.4619 28.0893 45.6966 27.9509C45.5976 28.2153 45.5976 28.5041 45.1684 29.1314C44.7392 29.7586 44.7229 29.8494 44.3763 30.5011C44.0298 31.1779 43.9885 32.1516 43.6583 32.5803C43.8063 32.5084 43.965 32.4612 44.1283 32.4405C44.1283 32.4405 43.7986 32.7294 43.6583 33.0346C43.5179 33.3397 43.2704 33.9751 42.66 34.3635C42.0497 34.752 41.2734 34.9989 40.44 35.915C39.606 36.8143 38.7481 37.9534 38.3184 38.363C38.5414 37.9752 38.8466 37.1994 38.9293 36.6881C39.012 36.1767 38.9124 35.5652 39.0528 34.889C39.1931 34.2129 39.1931 33.7254 39.8688 32.545C40.5444 31.3645 41.701 27.2633 41.701 27.2633L44.193 26.4712L44.9443 28.2539L44.9432 28.2566Z" fill="#B6933F"/>
<path fill-rule="evenodd" clip-rule="evenodd" d="M43.1429 26.7461C43.1429 26.7461 42.3922 27.827 42.186 28.7845C41.9798 29.7419 42.1691 29.6592 42.0456 30.1298C41.9718 30.4167 41.9718 30.7176 42.0456 31.0046C42.3056 30.5857 42.6616 30.2348 43.0841 29.9807C43.794 29.5521 44.3718 29.2463 44.7161 28.8835C45.0627 28.4956 45.3515 27.8602 46.1022 27.3734C45.7971 27.332 45.3678 27.1917 45.2862 27.2102C45.592 26.8636 46.5075 26.3354 47.4318 25.7C48.3479 25.0472 48.2902 24.7839 49.7759 24.1322C49.289 24.2149 49.0578 24.0909 48.6531 24.1322C48.8163 23.7857 49.3875 23.6203 49.9587 23.0513C50.5299 22.4822 49.5958 21.6401 49.5958 21.6401L45.2438 24.2726L43.1396 26.7483L43.1429 26.7461Z" fill="#C49937"/>
<path fill-rule="evenodd" clip-rule="evenodd" d="M31.334 24.7817L31.433 23.9896L32.6793 21.9926L33.9833 18.4854V13.6906L33.8843 10.9179L34.0904 9.10198L34.2471 8.5248L34.4125 8.30176L35.4765 8.85446L36.9459 10.8515L37.0862 14.7057L35.6582 20.7876L31.5815 25.2359L31.334 24.7817Z" fill="#DFC068"/>
<path fill-rule="evenodd" clip-rule="evenodd" d="M34.5768 8.07905C34.5768 8.07905 33.924 8.09591 33.7848 10.811C33.6455 13.5261 33.578 14.9536 33.479 16.2989C33.38 17.6442 33.1494 18.4607 33.0335 19.2534C32.9176 20.046 32.8518 21.1263 32.4808 21.7868C32.3176 22.0919 31.9689 23.0494 31.1518 23.7675C30.2357 24.5595 28.867 25.1128 28.6597 25.1541C28.2963 25.2363 26.456 25.418 25.7053 25.8309C25.4414 25.9712 24.9872 26.136 24.484 26.6066C23.4852 27.5058 22.1568 29.115 21.1993 31.0543C19.7305 33.9511 18.2617 42.1291 18.2617 42.1291L18.5919 41.5764C18.5919 41.5764 18.6333 40.842 19.3677 39.5543C20.0858 38.2672 19.8796 36.8229 20.8778 34.3553C21.2657 33.4148 21.7526 32.1935 22.3466 31.1533C23.2877 29.4615 24.4263 28.009 25.5736 27.217C27.4466 25.9299 29.51 25.6492 29.51 25.6492L31.7301 24.1804C31.7301 24.1804 32.1179 23.4296 32.6298 22.5712C33.3474 21.3668 34.2618 20.0215 34.4615 18.0658C34.7672 15.169 34.0323 13.271 34.0736 11.5547C34.115 9.83834 34.1313 8.57572 34.4784 8.26999C34.8254 7.96426 34.5774 8.08014 34.5774 8.08014L34.5768 8.07905Z" fill="#A88F33"/>
<path fill-rule="evenodd" clip-rule="evenodd" d="M34.5768 21.0352C34.5768 21.0352 35.556 18.6253 36.0042 16.4879C36.0869 16.0587 36.2517 15.63 36.2931 15.2835C36.4993 13.2614 36.5569 12.428 36.2931 11.3221C36.0869 10.5061 35.2948 9.77058 34.8819 9.20046C34.4778 8.60587 34.2879 8.38446 34.3706 8.25934C34.4533 8.13422 34.7748 7.92968 35.0881 7.95416C35.4212 7.96385 35.7488 8.04119 36.0511 8.18147C36.3533 8.32175 36.6239 8.52204 36.8463 8.77016C37.4817 9.50456 37.9849 11.9972 37.9849 11.9972L38.5142 15.2862L39.8595 19.4288L34.5779 21.0384L34.5768 21.0352Z" fill="#C99E3D"/>
<path fill-rule="evenodd" clip-rule="evenodd" d="M43.7786 18.5272C43.7786 18.5272 43.5969 18.6093 43.2672 18.5272C43.2813 18.6619 43.2579 18.7979 43.1996 18.9202C43.1413 19.0425 43.0505 19.1463 42.937 19.2203C42.5905 19.0799 39.3466 19.3606 39.3466 19.3606C39.3466 19.3606 37.8364 19.0962 37.3659 17.0992C37.0362 15.7702 37.6134 13.9386 37.4235 12.7336C37.1347 10.9591 36.7305 10.612 36.6891 10.0598C36.6478 9.50768 36.6065 9.36679 36.6065 9.02026C36.4248 8.97892 36.3176 8.92125 36.1364 8.92125C36.0951 8.75805 36.1772 8.61552 35.9961 8.32666C36.0951 8.368 36.7718 8.45069 37.5639 9.20141C38.2167 9.81232 38.2167 10.0348 38.3152 10.1589C38.4387 10.2823 39.4374 11.1381 39.8667 11.991C40.2959 12.844 41.1293 15.564 41.3191 16.0096C41.3768 16.1913 41.5008 16.373 41.8087 16.7853C42.2875 17.3799 42.9887 18.3629 43.7807 18.5261L43.7786 18.5272Z" fill="#B58634"/>
<path fill-rule="evenodd" clip-rule="evenodd" d="M38.4316 10.2002C38.9316 11.0078 39.3807 11.8457 39.7764 12.7091C40.2633 13.8064 40.5522 14.7061 41.1631 15.4405C40.8329 14.4837 40.247 12.602 39.9004 11.9334C39.5126 11.2262 38.7205 10.4646 38.4316 10.2007V10.2002Z" fill="#A88F33"/>
<path fill-rule="evenodd" clip-rule="evenodd" d="M32.8208 23.7671C32.8208 23.7671 31.9874 23.9733 30.4359 24.7904C29.924 25.0542 29.4377 25.2767 28.9671 25.4835C27.7448 26.0362 26.4337 26.547 25.3936 26.8288C25.4763 26.9278 25.5171 26.9686 25.5171 26.9686C25.5171 26.9686 25.5171 27.3733 25.7401 27.604C25.6166 27.728 23.9656 28.8503 24.453 32.605C24.7827 32.4815 25.1706 32.3161 25.2282 32.3161C25.3278 32.333 25.3523 32.605 25.4758 32.605C25.5992 32.605 26.004 32.4418 26.4332 31.8869C26.4169 32.1099 26.1694 34.3545 27.4978 35.8646C27.7453 35.5758 28.3725 34.6183 28.3725 34.6183L28.3889 34.3131C28.3889 34.3131 28.4465 33.2485 28.7936 32.2748C29.1407 31.301 29.8169 30.5829 29.8169 30.5829L33.348 25.5406L32.8197 23.7666L32.8208 23.7671Z" fill="#E6C367"/>
<path fill-rule="evenodd" clip-rule="evenodd" d="M29.5198 31.1714C29.3581 31.2856 29.18 31.3746 28.9915 31.4352C28.9339 31.2291 28.8512 30.5191 29.3381 29.8261C29.9076 28.9921 31.1534 27.9112 31.4999 27.0517C31.723 26.4984 31.624 25.1123 33.6047 23.3378C35.5854 21.5633 36.3606 20.9529 36.3606 20.9529L39.5625 19.3438L43.4989 20.8952L41.5433 28.5602L40.0249 32.1506L33.9865 31.012L29.5192 31.1714H29.5198Z" fill="#DCBA5A"/>
<path fill-rule="evenodd" clip-rule="evenodd" d="M31.8242 29.0901L32.5755 28.1495V27.4809C32.5755 27.4809 33.4089 27.2579 34.3081 26.3418C35.2074 25.4257 36.4537 23.668 37.5515 23.7752C38.6492 23.8992 38.7564 26.1601 38.7978 26.796C38.8391 27.432 38.9795 28.8752 39.2019 29.6515C39.4495 30.4272 36.5282 33.3648 36.5282 33.3648L34.5442 34.875L31.8242 29.0901Z" fill="#E9CE77"/>
<path fill-rule="evenodd" clip-rule="evenodd" d="M34.1484 36.9211C34.1484 36.9211 34.7593 35.9637 34.3116 35.7575C34.5755 35.1635 35.0624 34.5362 35.0624 34.5362C35.0624 34.5362 35.4089 33.6783 36.5312 32.6219C37.6534 31.5654 38.347 30.8637 38.5287 30.1543C38.6407 29.692 38.7017 29.2188 38.7104 28.7432C38.8317 28.8423 38.9615 28.9306 39.0983 29.007C39.28 29.0897 40.1379 29.7991 40.0144 31.2271C39.8909 32.6551 39.3616 33.2491 39.3616 33.2491C39.3616 33.2491 38.8502 33.7605 38.4874 34.0249C38.099 34.2887 37.9592 34.5939 37.3069 34.6189C37.3739 34.5656 37.4493 34.5237 37.5299 34.4949C37.5299 34.4949 36.8532 34.4127 36.4898 34.7424C36.1264 35.0721 35.3539 36.0877 34.9661 36.3934C34.5782 36.641 34.1501 36.9217 34.1501 36.9217L34.1484 36.9211Z" fill="#CDAE50"/>
<path fill-rule="evenodd" clip-rule="evenodd" d="M61.5885 20.8699C60.6135 20.5146 59.5889 20.3141 58.5519 20.2759C56.8187 20.2182 54.2853 20.3172 51.8014 20.3335C49.1276 20.3498 46.7014 19.4174 43.3346 19.2526C42.7819 18.9224 41.3762 17.4781 36.9883 20.5397C37.2521 20.5234 40.1739 19.863 41.1885 21.1343C42.2118 22.3969 41.9229 24.5425 41.7831 25.0538C41.5187 26.1929 40.6603 27.8516 40.3143 29.0152C39.9683 30.1788 40.0499 30.7903 39.8024 31.6063C39.5549 32.4223 39.0103 32.8276 39.3318 33.7681C39.7611 33.5043 39.9846 33.5043 40.7016 31.8952C41.4186 30.286 41.2712 29.1387 42.4598 27.7771C43.6234 26.4073 45.5606 24.5337 46.2972 24.0632C47.0338 23.5926 52.8823 20.556 59.0061 23.4528C60.4831 23.2961 61.589 20.8694 61.589 20.8694L61.5885 20.8699Z" fill="#D2A83E"/>
<path fill-rule="evenodd" clip-rule="evenodd" d="M39.455 19.747C39.449 19.685 39.4353 19.624 39.4142 19.5654C39.357 19.4447 39.2818 19.3333 39.1912 19.2351C39.1912 19.2351 37.7387 18.9713 37.0043 19.0534C35.7167 19.1938 34.5531 20.7866 34.0085 21.6037C33.464 22.4208 32.7872 23.6829 32.0528 24.3351C32.0609 24.2716 32.0462 24.2073 32.0115 24.1534C32.0115 24.1534 32.0528 24.2111 31.9707 24.2938C31.8885 24.3765 31.888 24.4173 31.9293 24.457L32.0534 24.5805C32.0942 24.5805 33.2333 24.0686 34.7848 22.6221C36.4353 21.1119 37.6979 20.3373 38.3583 20.0718C38.7105 19.9221 39.0787 19.8132 39.4556 19.747V19.747H39.455Z" fill="#C29637"/>
<path fill-rule="evenodd" clip-rule="evenodd" d="M67.6281 13.5425C67.6281 13.5425 67.3637 13.8721 67.0335 14.2355C66.2991 15.0113 65.3417 15.8855 64.5246 16.7853C63.7494 17.6437 62.8746 18.3123 61.8922 19.4345C60.9097 20.5568 59.7706 21.8026 59.4822 22.166C59.2184 22.5294 59.0122 23.1234 59.0122 23.4286C58.8719 23.3296 58.707 23.2224 58.707 23.2224C58.7764 23.352 58.8594 23.4738 58.9546 23.5858C59.1607 23.8747 59.4822 24.2386 59.6476 24.4606C59.8505 24.7431 59.9961 25.0626 60.0763 25.4011C60.1753 25.4175 60.8107 25.5415 61.6033 24.2375C62.3959 22.9336 63.4349 21.5061 63.4349 21.5061L65.0854 19.0548L66.1256 16.9757L67.4312 14.6484L67.6297 13.5425H67.6281Z" fill="#AC8132"/>
<path fill-rule="evenodd" clip-rule="evenodd" d="M69.3212 11.8755C69.3212 11.8755 68.3224 12.6915 67.9345 13.1811C67.5466 13.6707 66.6289 14.9556 66.6289 14.9556L66.9591 14.9143L68.6346 13.4292L69.2874 12.2655L69.3206 11.8777L69.3212 11.8755Z" fill="#A88F33"/>
<path fill-rule="evenodd" clip-rule="evenodd" d="M69.0161 77.4575C69.0161 77.4575 68.9998 76.7807 69.3795 76.3765C69.7673 75.9718 70.7493 75.3778 71.7067 73.1495C72.6641 70.9213 72.7708 70.4181 72.7708 70.4181C72.7708 70.4181 71.0544 71.8869 69.9964 72.2334C70.2439 71.7215 70.3842 71.3587 70.5083 71.0943C70.3679 70.9708 69.7739 70.8305 69.7162 70.7646C70.0459 70.4344 70.2276 69.6255 70.8961 69.0891C71.7546 68.4363 73.3224 67.3146 74.5409 66.3147C75.7595 65.3148 78.1553 62.9892 78.461 62.3125C78.6427 62.5763 78.6835 62.7412 78.6835 62.7412C78.6835 62.7412 77.4791 64.3095 76.8518 65.3078C76.2986 66.1662 76.3399 66.6531 76.3399 66.6531L77.4791 66.1635C77.4791 66.1635 77.8087 67.3848 76.3155 69.242C76.9683 68.9945 77.2316 69.143 77.6026 68.9362C76.9917 69.3247 76.1501 69.8529 75.358 71.3048C74.5823 72.7573 73.5258 74.4491 71.7437 75.505C70.0105 76.6192 69.0117 77.4526 69.0117 77.4526L69.0161 77.4575Z" fill="#A67A2E"/>
<path fill-rule="evenodd" clip-rule="evenodd" d="M64.543 21.7289C64.543 21.7289 63.8663 23.1395 63.7673 24.2373C63.7509 24.5017 63.6846 24.7079 63.6846 25.013C63.6683 25.995 63.7422 27.0928 63.5214 27.6041C63.4387 27.3979 63.3973 27.2576 63.3146 27.1754C63.1912 27.522 62.9681 28.6029 62.7864 29.0071C62.7043 28.7433 62.5226 27.8272 62.5394 26.7462C62.5563 25.6653 62.5802 25.4586 62.5802 25.2361C62.5394 25.5658 62.3164 26.0118 62.2337 26.2757C62.1102 26.0532 61.9699 25.7643 61.8045 25.525C61.7055 25.6882 61.582 25.9291 61.4748 26.0532C61.458 25.9542 61.4172 25.6898 61.3922 25.3188C61.3758 24.8896 61.3508 24.3369 61.3758 24.221C61.4166 23.9985 61.7637 23.1237 62.4981 22.323C63.3729 21.3655 64.2726 19.5257 64.5365 18.9562C64.8003 18.3866 65.9226 16.0186 65.9226 16.0186H66.781L65.5347 18.8571C65.5347 18.8571 64.784 20.4086 64.3961 20.9787C64.0082 21.5489 63.1912 23.1825 62.8278 23.8179C63.0916 23.4714 63.3146 23.2897 63.579 22.9595C63.8347 22.7283 64.5441 21.73 64.5441 21.73L64.543 21.7289Z" fill="#8C6228"/>
<path fill-rule="evenodd" clip-rule="evenodd" d="M69.3375 11.7676C69.1973 12.1991 68.9757 12.5999 68.6847 12.9481C68.1728 13.559 67.075 14.3755 66.5392 15.0272C66.0496 15.6626 65.0704 17.3958 65.5154 19.4505C65.6786 19.005 65.986 18.122 66.803 17.1233C67.6201 16.1245 68.4949 14.9777 68.9246 14.0867C69.3533 13.1869 69.411 12.4775 69.411 12.4775L69.5742 12.2713L69.4752 11.8008L69.3348 11.7676H69.3375Z" fill="#CBA94C"/>
<path fill-rule="evenodd" clip-rule="evenodd" d="M86.048 66.5062C86.048 66.5062 85.7178 65.607 85.6188 64.7899C85.5198 63.9728 85.782 63.8107 85.4784 62.8755C85.2967 62.306 84.9671 62.3859 84.8844 62.306C84.8017 62.226 84.744 61.3654 84.7603 60.8948C84.7767 60.4243 84.744 59.8139 84.6613 59.5495C84.5379 59.4505 84.4552 59.3678 84.2735 58.7575C84.0673 58.1465 83.9683 57.8414 83.8693 57.6602C83.7703 57.4791 83.4809 57.3137 83.4809 57.132C83.4809 56.7686 83.8111 56.5793 83.8111 56.4792C83.7947 56.273 83.5472 56.4384 83.4809 56.3802C83.3987 56.2812 83.6876 55.6871 83.5804 55.6044C83.5391 55.5636 83.2502 55.9102 83.1757 55.8111C83.093 55.7116 82.994 54.7297 82.8455 54.078C82.7057 53.4426 82.5566 52.9807 82.5403 52.7909C82.524 52.6092 81.4011 49.4072 81.1291 48.6314C80.9099 47.9759 80.7254 47.3093 80.5764 46.6344C80.4938 46.2465 80.4361 45.4539 80.3947 45.5366C80.3534 45.6193 80.3784 46.0235 80.3121 46.0072C80.2544 45.9903 80.0482 44.5797 79.9824 44.3567C79.9247 44.1336 79.5777 43.3775 79.4928 42.8302C79.4101 42.277 79.229 40.8327 79.1049 39.8507C78.9809 38.8688 78.9232 38.4646 78.9232 38.2187C78.9435 37.6173 78.9104 37.0153 78.8242 36.4197C78.661 35.3796 78.3346 34.117 78.0485 33.3831C77.4958 31.9965 76.0264 28.4479 75.7637 27.565C75.7637 27.342 76.0525 27.466 76.0525 27.466C76.0525 27.466 76.7701 29.265 77.2983 30.6512C77.8102 32.0378 78.2971 33.2591 78.4211 33.3831C78.5201 33.5066 79.2959 34.8682 79.6424 37.0965C79.9889 39.3247 80.1124 41.3794 80.3191 42.7492C80.4181 43.402 80.5008 44.0945 80.707 44.7875C80.9295 45.5388 81.276 46.3145 81.7303 47.5026C82.1181 48.5014 82.407 49.3348 82.5637 50.0529C82.7454 50.969 82.7454 51.6621 82.8525 52.1163C82.9521 52.5042 83.1001 53.2794 83.4471 54.4011C83.7942 55.5228 84.305 56.9677 84.6515 57.8669C85.3288 59.6659 85.6307 61.1679 85.733 61.9687C85.8233 62.7939 86.129 65.6494 86.0464 66.5073L86.048 66.5062Z" fill="#A88F33"/>
<path fill-rule="evenodd" clip-rule="evenodd" d="M69.3791 11.669L69.3377 11.768C69.3377 11.768 69.4612 11.8094 69.4367 11.9747C69.4385 12.201 69.4247 12.4271 69.3954 12.6515C69.3546 12.9403 69.2719 13.1628 69.2556 13.3445C69.2556 13.7324 69.3132 14.1779 68.766 15.2839C68.6028 15.5891 68.5021 15.8529 68.4194 16.0346C68.2133 16.4801 68.1719 16.5465 67.9902 16.7527C68.2791 16.5895 69.3192 15.9367 69.8469 16.0346C69.4841 16.2408 68.9308 16.6455 68.5843 17.1737C68.667 17.1901 69.0135 17.2564 69.5635 17.1737C70.4796 17.0334 71.5028 16.7032 72.4021 16.769C73.3845 16.8267 72.9967 15.5891 72.9967 15.5891L71.863 13.097L69.7174 11.5874L69.3791 11.6695V11.669Z" fill="#BE9C44"/>
<path fill-rule="evenodd" clip-rule="evenodd" d="M74.9736 30.336C74.9736 30.336 74.0162 29.3786 73.6283 26.0928C73.2404 22.7918 73.3231 17.9328 73.3231 17.9328L72.5474 16.0348C72.5474 16.0348 72.3842 14.7722 71.9778 14.3022C71.5714 13.8321 70.7734 13.0395 70.41 12.6517C70.0466 12.2638 69.6342 11.7356 69.3867 11.6529C69.5102 11.4467 70.0635 10.2831 72.184 10.2668C74.3045 10.2504 74.9584 11.4304 75.1798 11.8596C75.4012 12.2888 76.4011 14.1444 76.7721 17.6804C77.1186 21.212 77.1355 21.4764 77.0778 22.6977C77.0364 23.3744 76.8134 24.9423 76.425 26.6172C76.0703 28.0371 75.6824 29.6217 74.9725 30.3393L74.9736 30.336Z" fill="#A17C34"/>
<path fill-rule="evenodd" clip-rule="evenodd" d="M71.9713 33.1504C72.2904 33.1735 72.6091 33.1015 72.8874 32.9437C73.1926 32.9274 74.2985 33.0677 75.1482 31.9868C75.2059 32.2338 75.355 32.9029 74.9665 33.497C75.1733 33.2902 75.4784 33.2081 75.5198 33.1504C75.5361 33.4556 75.825 34.3962 74.6037 36.6821C74.9334 36.3192 75.3212 36.3356 75.6678 36.2942C75.6846 36.7234 75.9153 38.1672 75.3049 38.9435C74.9007 39.4717 74.2403 39.3063 74.2403 39.3063C74.25 39.191 74.25 39.0751 74.2403 38.9598C74.224 38.7368 74.1413 38.5143 74.1995 38.3658C73.8804 38.22 73.5897 38.0187 73.3411 37.7712C72.623 37.0944 71.6906 35.9395 71.6248 35.0811C71.5421 34.1236 72.4005 33.9175 72.4005 33.9175C72.3286 33.8531 72.2673 33.7779 72.2188 33.6944C72.1775 33.5546 72.1361 33.3316 71.9713 33.1504V33.1504Z" fill="#8C6228"/>
<path fill-rule="evenodd" clip-rule="evenodd" d="M65.6056 22.7684C65.6056 22.7684 65.5643 22.7107 65.3418 22.9746C65.3831 22.7107 65.4245 22.4627 65.4408 22.2233C65.5461 22.0017 65.6824 21.7962 65.8455 21.6129C65.7215 21.8599 65.6388 22.0829 65.6388 22.0829C65.6388 22.0829 65.9445 21.5134 66.3901 21.1668C66.6953 20.9193 67.0831 20.804 67.248 20.5728C67.4297 20.3253 67.3883 20.2839 67.4297 20.2426C67.4297 20.2426 67.8344 19.9787 68.4535 19.2025C68.5356 19.1035 68.6597 18.9963 68.7423 18.8973C68.8821 18.8396 69.2124 18.6911 69.6002 18.4925C70.005 18.27 70.4587 17.9649 70.7394 17.8397C71.2921 17.5922 71.8785 17.6172 72.1505 17.2288C72.3567 17.1712 72.5792 16.5521 72.5384 16.0244C72.8436 16.1479 74.4114 17.1217 74.9483 19.2509C75.3362 20.761 74.6426 23.0883 74.3537 24.2111C74.0648 25.3339 74.024 26.1667 73.6193 26.6781C73.1074 27.3554 71.4574 28.3101 71.0527 28.7828C70.7062 29.1707 69.6666 30.1526 69.7074 30.862C69.7487 31.3902 70.4005 31.678 70.5413 31.7781C70.6822 31.8782 70.6812 32.0011 70.9455 31.9413C71.2099 31.8815 71.3084 31.7596 71.4161 31.7596C71.5396 31.7759 71.5396 31.801 71.5973 31.801C71.6391 31.7997 71.6806 31.7941 71.7213 31.7841C71.7213 31.7841 71.6799 32.5354 69.9223 32.7633C69.7982 32.7802 69.6748 32.821 69.5175 32.846C69.7243 32.747 69.8477 32.747 70.0708 32.4418C69.8233 32.4004 69.1133 32.3591 68.9317 32.3014C68.9893 32.2024 69.1792 31.938 69.3358 31.8146C69.4762 31.6911 69.3195 31.6514 69.196 31.7155C68.9834 31.8602 68.7794 32.0171 68.5851 32.1856C68.3789 32.3673 68.1972 32.6148 67.867 32.8384C67.768 32.5082 67.7844 31.8809 68.1728 31.4272C68.0732 31.4436 67.8834 31.7324 67.7022 31.6747C67.6695 31.3737 67.689 31.0693 67.7599 30.775C67.8589 30.4034 68.3953 29.7517 68.3953 29.7517L70.9863 25.1217L71.539 21.6146L65.6056 22.7673V22.7684Z" fill="#92723A"/>
<path fill-rule="evenodd" clip-rule="evenodd" d="M65.4671 22.9668C65.4671 22.9668 65.3268 23.0658 65.6075 23.2557C65.5661 23.3133 65.4671 23.5195 65.3431 23.6599C65.2033 23.8231 65.0542 23.9242 64.9965 24.0646C64.8731 24.3535 64.774 24.5515 64.774 24.6755C64.774 24.7995 64.7327 25.5916 64.3862 26.103C64.2621 26.2847 64.1218 26.5898 64.0228 26.796C63.8166 27.1589 63.6349 27.4488 63.5936 27.612C63.5114 27.9009 63.4538 28.6929 63.4538 28.6929C63.4538 28.6929 63.6355 28.4699 63.7013 28.3878C63.6017 28.5939 63.4946 28.8164 63.3379 28.9818C63.4369 28.8991 63.7258 28.6929 64.2126 28.2637C64.8894 27.6947 65.9458 26.7373 67.2335 25.9789C66.8451 26.1193 66.5154 26.1193 66.2516 26.1606C66.4577 25.9545 68.3144 23.7757 69.2882 23.5696C69.3473 23.4946 69.3767 23.4005 69.3708 23.3052L68.5369 23.223L66.8451 23.5859L66.5981 22.2803L65.4671 22.9652V22.9668Z" fill="#B18E3E"/>
<path fill-rule="evenodd" clip-rule="evenodd" d="M68.1576 30.3939C68.1576 30.3939 67.9346 30.6164 67.7284 31.1697C67.5696 31.0039 67.4336 30.8179 67.3236 30.6164C67.0185 30.1051 66.5484 29.4528 65.4507 29.8244C65.4343 29.4778 65.4093 29.2962 65.4507 29.0486C65.6323 29.0078 66.1851 28.5623 66.7378 27.91C67.1262 27.4645 67.489 26.9526 67.7365 26.3009C67.8997 26.1769 68.1821 25.9707 68.5525 25.7313C69.0808 25.3685 69.7162 24.8729 69.8152 24.3202C69.5676 24.4192 69.0394 24.6667 68.2468 24.6259C68.5525 24.4856 69.0226 24.337 68.9649 23.7261C69.0889 23.6434 69.1879 23.5858 69.1879 23.5858C69.0949 23.5548 68.9971 23.5408 68.8991 23.5444C68.8822 23.4868 68.8577 23.4046 68.7174 23.4454C68.577 23.4862 68.5542 23.4868 68.5357 23.5444C68.478 23.5613 68.2882 23.5444 68.1478 23.644C68.0074 23.7435 67.6196 24.0727 67.4711 24.1303C67.5287 24.0313 67.6109 23.8834 67.6109 23.8834C67.6109 23.8834 67.2067 23.9242 66.9178 24.0466C66.3896 24.2282 65.7792 24.5585 65.1602 24.88C65.2178 24.781 65.2428 24.7168 65.2836 24.6983C65.3244 24.6798 65.424 24.6575 65.424 24.6406C65.424 24.6237 65.3832 24.4774 65.4077 24.4181C65.5927 24.026 65.8111 23.6505 66.0605 23.2958C66.3493 22.9074 66.407 22.3547 66.407 22.3547L67.6696 21.7193L71.2181 20.9033L73.5209 21.0437L73.232 22.6365L71.872 25.4174L70.7084 27.9508L69.3794 29.5029L68.1581 30.3939H68.1576Z" fill="#543E26"/>
<path fill-rule="evenodd" clip-rule="evenodd" d="M73.9082 23.5008C73.9082 23.5008 72.5215 25.2172 72.1337 25.4815C72.3812 24.9533 73.9082 21.809 74.4609 20.9342C74.3374 20.8352 74.172 20.8352 74.5599 19.3022C74.2302 20.0774 74.1144 20.4822 73.8424 20.6884C73.5704 20.8945 73.5366 20.8287 73.3528 20.8287C73.3875 20.7659 73.4018 20.6938 73.3936 20.6225C73.3936 20.6225 72.23 20.4822 71.4352 20.4822C70.6404 20.4822 69.0671 20.9114 68.1918 21.2579C67.4988 21.5468 67.1109 21.5468 66.8634 21.7279C66.6159 21.9341 66.4755 22.1572 66.3515 22.2148C66.2525 22.2725 65.7825 22.421 65.6748 22.5777C65.5757 22.7409 65.4109 22.9242 65.4109 22.9655C65.4109 23.0069 65.3696 23.0651 65.4936 23.0232C65.5344 23.0069 65.8401 22.8415 66.1867 22.6353C66.6567 22.3715 67.2262 22.0663 67.6391 21.8846C68.8191 21.4141 69.1906 21.4967 69.7183 21.3977C70.271 21.2987 71.0636 21.0675 71.5913 21.0675C72.1195 21.0512 73.1183 21.0675 73.3495 21.1089C73.2505 21.1916 73.1678 21.2906 73.2092 21.6371C73.2092 21.7361 73.1265 21.8433 73.046 22.0826C72.799 22.7594 72.3284 23.8816 72.0668 24.4512C71.7039 25.2264 71.2916 25.8787 71.0876 26.2829C70.8836 26.687 70.4348 27.7517 69.9903 28.3212C69.5459 28.8908 69.3136 29.2373 69.1743 29.3613C69.035 29.4854 68.0352 30.2192 68.1097 30.4836C68.2914 30.426 69.4387 29.994 70.2716 29.0562C71.1044 28.1183 71.2703 27.546 71.922 27.0341C72.5738 26.5222 73.0857 25.6643 73.3908 24.9549C73.6465 24.2945 73.5889 24.0884 73.9104 23.5025L73.9082 23.5008Z" fill="#806031"/>
<path fill-rule="evenodd" clip-rule="evenodd" d="M44.0261 36.3107C44.0261 36.3107 43.8444 37.0614 43.4315 37.4329C43.0273 37.7963 42.3092 38.1097 42.2271 38.7206C42.1281 39.331 42.9452 39.6367 42.9452 39.6367C42.9452 39.6367 42.4991 40.3711 42.4991 40.9238C42.4991 41.4934 42.4828 41.6005 42.5404 42.1451C42.475 42.1872 42.4193 42.2428 42.3772 42.3083C42.3772 42.3083 42.418 42.8365 42.8228 43.1662C43.2275 43.4958 43.5735 43.6944 43.7796 43.6117C43.8111 43.679 43.8387 43.748 43.8623 43.8184C43.8623 43.8184 44.1681 43.0427 44.3742 42.3659C44.5804 41.6729 44.7621 41.7713 44.8443 40.8389C44.9264 39.9065 45.8235 38.3055 45.8235 38.3055L46.4355 36.9374L45.4372 36.1616L44.0261 36.3101V36.3107Z" fill="#B6903C"/>
<path fill-rule="evenodd" clip-rule="evenodd" d="M45.8846 37.6558C45.6788 37.8671 45.4888 38.0933 45.3162 38.3325C45.0523 38.6959 44.8462 39.0256 44.4583 39.1664C44.0704 39.3073 43.8229 39.3063 43.8474 39.6947C43.8718 40.0831 44.2352 40.2474 44.4414 40.4454C44.6645 40.6516 44.8462 40.9981 44.7471 41.3865C44.8706 41.3289 45.0937 41.2625 45.2998 40.8169C45.506 40.3714 46.9482 37.6563 46.9482 37.6563H45.8846V37.6558Z" fill="#685026"/>
<path fill-rule="evenodd" clip-rule="evenodd" d="M51.572 31.3919C51.572 31.3919 51.6955 31.0623 51.572 30.8229C51.448 30.5754 50.6973 30.4927 50.3257 30.212C49.9379 29.9231 49.4673 29.7224 49.0794 29.8491C49.1371 29.7088 49.3683 29.4031 49.1784 29.3372C48.9967 29.2796 48.3206 29.5848 48.1389 29.7251C47.9572 29.8655 47.5443 30.0303 47.4621 30.1299C47.38 30.2294 47.2391 30.4187 47.1564 30.336C47.0737 30.2784 47.0329 30.1299 46.8926 30.212C46.7522 30.2941 46.0766 30.8474 45.952 31.1694C45.8274 31.4915 45.5472 32.2096 44.7057 33.0261C43.8641 33.8426 43.5007 34.3714 43.7482 34.6766C43.9958 34.9818 44.1116 34.7593 44.153 35.0231C44.1848 35.2821 44.1708 35.5447 44.1116 35.7989C44.0126 36.2281 43.8478 36.6323 44.0703 36.715C44.6398 36.8967 45.1931 36.5518 45.3166 36.6573C45.5641 36.8798 45.1762 37.6806 45.7621 37.8372C46.3567 38.0004 46.9426 37.6969 46.9426 37.6969L49.1045 36.5333L51.1842 35.436L52.2482 33.3313L51.6776 31.5736L51.5688 31.3919H51.572Z" fill="#D4B968"/>
<path fill-rule="evenodd" clip-rule="evenodd" d="M49.5321 36.4181C49.5321 36.4181 49.1687 35.8654 49.6148 35.3779C50.0609 34.8905 50.6957 34.6849 50.9433 34.3797C50.8961 34.3216 50.8329 34.2786 50.7616 34.2562C50.9259 33.9622 51.1765 33.7258 51.4796 33.5789C51.3561 33.4554 51.1908 33.3564 51.0096 33.3564C50.6049 33.3564 50.3568 33.604 49.9858 33.604C49.623 33.604 49.5816 33.4223 49.5816 33.4223C49.5816 33.4223 50.1925 33.3646 50.1343 33.0921C50.0767 32.8032 49.9711 32.8032 49.9711 32.8032C49.9711 32.8032 51.1511 32.3136 51.3572 32.0525C51.5634 31.7913 51.5389 31.4829 51.5803 31.3594C51.7201 31.3594 52.5372 30.9302 52.8674 31.1119C53.1976 31.2936 52.9664 31.7886 52.9664 31.7886C52.9664 31.7886 53.9657 31.0374 54.4749 30.3008C54.9204 30.3421 55.1277 29.9956 55.4541 29.9956C55.8588 29.9956 56.4942 30.5483 56.6177 31.7282C56.7004 32.405 56.8239 32.7929 56.7004 33.9897C56.6427 34.6664 56.6591 36.1113 56.8636 36.8282C57.0034 37.3978 57.3336 37.3402 57.3336 37.3402C57.283 37.5137 57.1825 37.6686 57.0448 37.7857C56.8217 37.9919 56.7972 38.5369 56.8217 38.7431C56.8546 38.8939 56.896 39.0426 56.9457 39.1887C56.9457 39.1887 56.6819 39.4938 56.6155 39.7006C56.5579 39.9067 56.2859 40.0471 56.0873 40.0471C55.8888 40.0471 55.9883 40.0302 55.7245 40.0471C55.4606 40.064 55.3779 40.1048 55.2126 40.0471C55.0472 39.9894 54.9237 39.9231 54.9901 39.3943C55.0477 38.8661 52.9517 37.6366 52.9517 37.6366L49.5245 36.4154L49.5321 36.4181Z" fill="#CCA849"/>
<path fill-rule="evenodd" clip-rule="evenodd" d="M45.5945 41.6336C45.5945 41.6336 46.3452 42.6323 49.4319 42.6323C50.9007 42.6323 51.4126 42.492 51.7167 42.4093C52.0469 42.3266 53.2845 41.8403 54.5308 40.3709C55.6531 39.0425 55.4056 38.4979 55.4056 38.4979L54.7528 38.3989L52.6312 38.6878L46.3534 41.3616L45.5918 41.6336H45.5945Z" fill="#585136"/>
<path fill-rule="evenodd" clip-rule="evenodd" d="M47.8964 41.8808C47.8964 41.8808 45.2227 42.4754 45.2227 40.7836C45.2227 39.1331 46.8732 37.3999 47.286 37.0947C47.7153 36.789 48.7385 36.4419 48.7385 36.4419H51.2061L51.6761 37.6882L51.47 40.3783L47.8964 41.8803V41.8808Z" fill="#252211"/>
<path fill-rule="evenodd" clip-rule="evenodd" d="M50.3653 36.9464C50.3653 36.9464 49.8539 36.4758 48.6903 37.1096C47.5267 37.7433 46.5856 39.068 46.5279 40.2707C46.4703 41.3348 47.4027 42.1274 48.8552 42.1688C49.9361 42.2096 50.5883 42.0861 50.9185 42.0056C50.8359 41.9066 50.4066 41.3702 50.4066 41.3702L50.3658 36.9469L50.3653 36.9464Z" fill="#C3B378"/>
<path fill-rule="evenodd" clip-rule="evenodd" d="M49.8614 37.2098C49.8614 37.2098 49.7379 37.1108 49.3718 37.3088C49.0666 37.472 48.621 37.9034 48.2745 38.2086C48.0515 38.3903 47.9111 38.4724 47.7849 38.6128C47.273 39.2237 46.8438 40.2225 47.0919 40.7175C47.3399 41.2126 48.1565 41.7821 50.2362 41.3943L49.8554 37.2104L49.8614 37.2098Z" fill="#E6D89C"/>
<path fill-rule="evenodd" clip-rule="evenodd" d="M49.1848 38.2336C49.1848 38.2336 48.8545 38.7455 48.8545 39.5626C48.8545 40.396 49.3251 41.7244 51.0583 41.8235C52.3867 41.9061 53.2778 39.9091 54.2434 39.1334C54.9778 38.5393 55.4233 38.5225 55.4233 38.5225C55.4233 38.5225 54.6726 37.7065 52.6674 36.6495C50.6867 35.5849 48.4667 35.4445 47.2617 37.0787C47.8313 37.0373 49.6716 36.5668 49.6716 36.5668L50.5714 36.8556L49.1848 38.2341V38.2336Z" fill="#252211"/>
<path fill-rule="evenodd" clip-rule="evenodd" d="M51.7748 39.3145C51.7171 39.191 51.6758 39.0257 51.9151 38.9849C52.1545 38.9441 52.2617 38.968 52.3443 39.1481C52.427 39.3281 52.5075 39.4783 52.3851 39.5528C52.2617 39.6186 51.9396 39.5528 51.7742 39.3134L51.7748 39.3145ZM51.3869 38.1509C51.3869 38.1509 51.3042 38.2086 51.3456 38.0932C51.3619 37.9534 51.4696 37.7054 51.7334 37.7636C51.9973 37.8218 51.9402 38.1101 51.8966 38.1928C51.8531 38.2755 51.6328 38.4153 51.4674 38.356C51.4465 38.3506 51.427 38.3404 51.4108 38.3261C51.3945 38.3119 51.3818 38.294 51.3738 38.2739C51.3657 38.2538 51.3625 38.2321 51.3644 38.2105C51.3663 38.189 51.3733 38.1682 51.3847 38.1498L51.3869 38.1509Z" fill="#6F674D"/>
<path fill-rule="evenodd" clip-rule="evenodd" d="M29.0488 38.6783C29.0488 38.6783 29.7016 39.1679 30.46 39.1489C31.2107 39.132 32.1763 38.3568 32.6218 37.8612C32.8857 37.5723 33.1114 37.2672 33.3562 37.0278C33.5629 36.8216 33.7027 36.7226 33.8018 36.5823C33.9421 36.4191 34.0906 36.1122 34.1651 36.0127C33.9835 36.153 33.7196 36.4011 33.4471 36.5659C33.1832 36.7291 32.6137 37.036 32.3825 37.1186C32.16 37.2013 29.8491 38.4242 29.8491 38.4242L29.0488 38.6783Z" fill="#AC924C"/>
<path fill-rule="evenodd" clip-rule="evenodd" d="M30.0469 32.5808C30.0469 32.5808 30.4097 32.3333 31.1115 32.1761C31.7882 32.0129 33.1499 31.8872 33.1499 31.8872L34.2721 32.3768L34.7177 34.0686L33.9017 35.8269L32.8621 36.4797L31.6816 34.5816L30.0496 32.5841L30.0469 32.5808Z" fill="#9F8E57"/>
<path fill-rule="evenodd" clip-rule="evenodd" d="M28.5779 34.091L28.1895 34.3809C28.1895 34.3809 28.289 34.1992 28.3711 33.6465C28.4533 33.0938 28.8831 31.7485 29.5103 30.9727C30.1375 30.197 30.1212 30.2383 30.1212 30.2383C30.0635 30.2278 30.0042 30.2297 29.9472 30.2438C29.8903 30.258 29.837 30.2841 29.791 30.3205C29.8737 30.1377 30.4019 29.4849 30.9301 29.1585C31.4583 28.8321 31.6645 28.7293 32.2172 28.9953C32.7699 29.2613 32.9103 29.3995 33.315 29.3832C33.7198 29.3669 34.0657 28.9376 34.0657 28.9376C34.0657 28.9376 34.1484 29.2015 33.8432 29.8124C33.5381 30.4233 32.3331 31.6691 32.3331 31.6691L29.8242 33.3854L28.5779 34.0926V34.091Z" fill="#EAC970"/>
<path fill-rule="evenodd" clip-rule="evenodd" d="M30.4338 32.3745C30.4338 32.3745 32.2497 32.622 32.8024 32.1107C32.8187 32.1683 32.8851 32.1683 32.8851 32.2097C32.8806 32.2408 32.8661 32.2697 32.8437 32.2918C32.9039 32.2822 32.9646 32.2768 33.0254 32.2755C33.0981 32.2971 33.1729 32.311 33.2485 32.3168C33.3094 32.3155 33.3701 32.3099 33.4302 32.3C33.4244 32.341 33.4105 32.3804 33.3892 32.416C33.3679 32.4515 33.3396 32.4823 33.3061 32.5067C33.3888 32.5067 33.4693 32.523 33.4693 32.5888C33.4693 32.6547 33.4857 32.8532 33.3866 32.8946C33.3046 32.9173 33.2173 32.9113 33.1391 32.8777C33.1457 33.0339 33.1881 33.1866 33.2632 33.3238C33.4264 33.629 33.7745 33.9766 34.2424 33.8765C34.2424 33.8765 34.4893 34.4705 33.4498 35.7908C33.3099 35.9725 33.1609 36.22 32.9797 36.4262C32.9082 36.5822 32.8535 36.7455 32.8165 36.9131C32.8165 36.9131 34.5747 36.2364 35.0779 34.693C35.5899 33.1415 35.6889 31.6151 35.5898 30.1876C35.573 29.7829 35.5072 29.4946 35.4082 29.2878C35.1606 28.7759 34.467 28.8586 34.1869 29.1475C33.7821 29.5522 33.1054 30.5586 32.1648 31.2517C31.2074 31.9447 31.1666 32.0677 30.4316 32.3745H30.4338Z" fill="#D7BC6B"/>
<path fill-rule="evenodd" clip-rule="evenodd" d="M28.2572 34.6028C28.2572 34.6028 27.9106 34.809 27.7289 35.582C27.5472 36.3741 27.8921 37.3397 28.0918 37.6449C28.2914 37.9501 28.7446 38.784 29.6846 38.8254C29.9173 38.8241 30.1474 38.7764 30.3614 38.685C30.6895 38.5345 30.9973 38.3432 31.2775 38.1154C31.6822 37.8103 32.0119 37.5464 31.9705 37.5214C31.8715 37.48 29.4784 35.4993 29.4784 35.4993L28.5787 34.4951L28.2566 34.6039L28.2572 34.6028Z" fill="#585136"/>
<path fill-rule="evenodd" clip-rule="evenodd" d="M30.5177 37.8871C30.5177 37.8871 31.0045 37.8463 31.2934 37.6646C31.5823 37.4829 29.6016 35.519 29.6016 35.519L29.7419 37.6406L30.5177 37.8871Z" fill="#453A25"/>
<path fill-rule="evenodd" clip-rule="evenodd" d="M28.4139 34.4537C28.4139 34.4537 28.1664 34.9242 28.1664 35.0483C28.125 35.4524 28.2491 36.7232 28.3481 37.1274C28.4471 37.5566 28.9835 38.2084 29.6771 38.2084C30.1057 38.2084 30.7003 37.9445 30.7003 37.8787C30.7003 37.796 30.0894 37.7155 29.9246 37.4081C29.8256 37.2449 29.7842 36.8391 29.7614 36.4289C29.7451 36.1651 29.7451 35.8762 29.8441 35.7761C30.0671 35.5286 30.1079 34.8187 30.1079 34.8187L30.9 33.3472H29.8582L28.6119 34.1229L28.4139 34.4537Z" fill="#84754B"/>
<path fill-rule="evenodd" clip-rule="evenodd" d="M28.1074 34.9079C28.1074 34.9079 28.9234 33.827 29.6589 33.5789C30.3944 33.3308 30.7235 33.4799 30.7235 33.4799L30.2943 34.5777L29.6834 35.2544L29.7247 35.601C29.7247 35.601 29.6252 36.5171 30.2361 37.1524C30.847 37.7878 31.3007 37.7634 31.5651 37.7634C31.8295 37.7634 32.5883 37.5403 32.9762 36.6242C33.3227 35.7663 33.6116 34.6658 32.9186 33.5626C32.2413 32.4648 31.045 32.4224 30.8138 32.4224C30.5826 32.4224 28.7673 32.5132 28.1074 34.9063V34.9079Z" fill="#252211"/>
<path fill-rule="evenodd" clip-rule="evenodd" d="M49.0615 38.5798C48.7563 38.4394 49.0452 37.5815 49.3504 37.3172C49.6556 37.0528 50.0434 36.7481 50.7207 36.7063C50.9677 36.6899 51.207 36.8466 51.1662 37.012C51.1086 37.3172 50.6794 37.7464 50.2915 38.0516C49.7551 38.4726 49.408 38.7365 49.0615 38.5798Z" fill="#F7F7E7"/>
<path fill-rule="evenodd" clip-rule="evenodd" d="M32.5556 33.9009C32.7786 33.8846 33.0675 34.0641 33.1251 34.3057C33.1828 34.5695 32.9848 35.0977 32.5556 35.0977C32.209 35.0977 32.0273 34.6685 32.0273 34.545C32.0312 34.4435 32.0596 34.3444 32.11 34.2562C32.1264 34.2311 32.1677 33.9423 32.5556 33.9009V33.9009Z" fill="#F8F6DE"/>
<path fill-rule="evenodd" clip-rule="evenodd" d="M29.338 34.0908C29.338 34.0908 28.7684 34.3547 28.5046 34.9068C28.3161 35.3146 28.259 35.7708 28.3414 36.2124C28.3827 36.4186 28.5889 36.93 28.7293 37.1117C28.8696 37.2933 29.0595 37.4174 29.1998 37.4005C29.3402 37.3837 29.6285 37.0126 29.6285 36.7901C29.6285 36.5677 29.6454 35.6265 29.9174 35.1146C30.1567 34.6033 29.3396 34.0914 29.3396 34.0914L29.338 34.0908Z" fill="#D4C38B"/>
<path fill-rule="evenodd" clip-rule="evenodd" d="M29.4208 34.0495C29.3218 34.1072 29.157 34.1899 29.1978 34.297C29.2391 34.396 29.5856 34.4602 29.7097 34.7018C29.85 34.9493 29.85 35.2131 29.8087 35.3371C29.9165 35.2859 30.0143 35.2159 30.0975 35.1304C30.2792 34.9243 30.5017 34.6441 30.6916 34.6441C30.8156 34.6441 30.9391 34.7018 31.055 34.7018C31.2367 34.7018 31.4178 34.6441 31.4429 34.4542C31.4837 34.2067 31.0963 33.9837 30.8733 34.025C30.9146 33.8618 30.9723 33.6208 30.7906 33.4554C30.6089 33.2901 30.0399 33.5795 29.9159 33.6622C29.7918 33.7449 29.4208 34.05 29.4208 34.05V34.0495Z" fill="#E2D59D"/>
<path fill-rule="evenodd" clip-rule="evenodd" d="M42.5337 51.388L43.755 51.0273L44.1015 51.2749C44.1015 51.2749 44.3485 51.8031 44.7369 51.8689C44.6129 52.1328 44.2909 52.3585 44.3077 52.5456C44.3246 52.7328 44.4894 52.8759 44.4894 52.8759C44.4894 52.8759 43.3916 54.6912 45.554 56.5207C45.0421 56.7268 44.3904 57.0103 44.0439 57.1735C44.2909 57.2311 44.8191 57.3367 45.0421 57.5368C45.2652 57.737 45.2652 57.8007 45.4713 57.9247C45.6775 58.0488 45.801 58.2136 45.7602 58.2876C45.6199 58.2049 45.1493 57.9579 45.0671 58.1886C44.985 58.4192 43.0288 58.3289 43.0288 58.3289L39.7278 58.9643C39.7278 58.9643 39.8513 58.6341 39.5047 58.3289C39.1006 57.9661 38.6055 58.3452 38.0773 57.941C37.3842 57.4128 37.3592 56.8019 37.1367 56.5712C37.3592 56.4309 37.8135 56.2247 38.8944 56.0816C38.853 55.999 38.7127 55.7514 38.7954 55.5289C38.8944 55.2401 39.3067 55.0584 39.1832 54.7129C39.3649 54.6716 39.4471 54.6716 39.9013 54.102C40.3305 53.5325 40.5944 53.409 40.9246 53.3676C41.2548 53.3263 41.4528 53.3676 42.0637 52.7981C42.4924 52.3939 42.3526 52.0473 42.3526 52.0473C42.3526 52.0473 42.6327 51.9565 42.5343 51.3869L42.5337 51.388Z" fill="#CBAC5A"/>
<path fill-rule="evenodd" clip-rule="evenodd" d="M38.9272 51.5711C38.9435 51.4884 39.0099 51.4471 39.4554 51.4884C39.901 51.5297 42.7232 51.2246 43.4908 51.1832C44.2666 51.1256 46.998 51.1664 48.327 51.4471C49.656 51.7278 51.0007 52.058 51.6525 52.2228C52.3053 52.4045 52.5109 52.4698 52.4859 52.5525C52.4695 52.6352 52.3227 52.7157 52.2383 52.6928C52.1562 52.6765 49.9938 52.0161 49.3258 51.8768C48.6577 51.7376 46.3463 51.3649 45.0826 51.3872C43.9026 51.4041 43.4321 51.3709 42.4338 51.4862C41.435 51.6103 39.7845 51.7751 39.2895 51.7093C38.7999 51.6516 38.9011 51.6516 38.9261 51.5689L38.9272 51.5711Z" fill="#D6BC6F"/>
<path fill-rule="evenodd" clip-rule="evenodd" d="M45.5704 58.0392C45.5704 58.0392 47.2623 58.9553 47.8732 60.0776C48.3187 60.911 47.6093 61.3239 47.6093 61.3239C47.6093 61.3239 48.5668 61.3239 48.4427 61.8521C48.3851 62.1818 46.7923 63.0729 45.7276 63.5434C44.6467 64.014 44.6881 63.9895 44.1598 64.0716C43.6479 64.1543 42.245 63.9084 41.9561 64.3192C41.6672 64.7299 41.7929 65.1531 41.8734 65.2189C41.9561 65.2766 42.6247 65.3593 42.6247 65.3593C42.6247 65.3593 42.4843 65.7472 41.0982 65.7885C39.7121 65.8298 39.365 65.9283 39.2823 66.0774C39.1996 66.2172 39.5462 66.135 40.1821 66.2406C40.8175 66.3396 41.7086 66.4038 41.7086 66.4038C41.7086 66.4038 41.4197 66.6513 40.669 66.8493C39.8106 67.0718 38.4652 67.2785 38.0611 67.526C38.2672 67.6664 38.573 67.8726 38.7139 67.8889C38.3673 67.9716 37.8799 68.1533 37.7978 68.2191C37.9212 68.3018 38.0866 68.4008 38.0866 68.4008C38.0866 68.4008 37.393 69.2342 36.9888 69.4409C36.5846 69.6476 34.2574 70.728 33.4566 70.5218C31.4596 69.9936 31.2121 67.8067 30.7252 67.6419C29.9908 67.3944 29.6443 67.8889 28.992 67.5424C29.2809 67.3362 29.4381 67.2127 29.7433 67.0723C29.4131 66.9091 27.7049 65.826 27.7049 65.826C27.5263 65.4367 27.328 65.0567 27.1109 64.6874C26.7807 64.1179 26.2949 63.3585 25.9304 62.6899C25.1383 61.2211 25.097 60.5443 24.3789 59.7109C24.5029 59.5477 24.9316 59.5706 24.9316 59.5706L30.9483 61.5513L41.6166 61.8603L44.391 57.8994L45.571 58.0398L45.5704 58.0392Z" fill="#DFC677"/>
<path fill-rule="evenodd" clip-rule="evenodd" d="M29.7656 64.0798C29.83 64.1515 29.9051 64.2127 29.9881 64.2615C30.1948 64.4019 30.5 64.5672 30.7062 64.8142C30.7889 64.6907 30.9951 64.4677 31.359 64.8142C31.7229 65.1607 32.175 64.9138 32.4563 64.9959C32.7451 65.0955 32.7614 65.1363 32.7614 65.1363C32.7614 65.1363 32.9246 64.9959 33.2897 64.8474C33.5127 64.7647 33.7765 64.707 34.0654 64.6249C34.3292 64.5672 34.6181 64.4845 34.8167 64.4845C34.9984 64.608 35.6501 65.3005 38.2662 64.2784C40.7338 63.3209 41.3028 63.2138 41.7157 63.3617C41.757 63.2627 41.7984 63.0729 42.4338 63.0979C42.4338 62.8341 41.9055 61.9343 41.9055 61.9343L38.9924 60.936H37.399L32.6211 61.8108L29.9734 63.3215L29.7673 64.0831L29.7656 64.0798Z" fill="#C4A859"/>
<path fill-rule="evenodd" clip-rule="evenodd" d="M28.1738 62.4048C28.1738 62.4048 28.2315 62.8503 28.8919 63.3209C29.5447 63.7909 29.7498 64.0716 29.7498 64.0716C29.7498 64.0716 29.8738 63.9084 29.9728 63.7419C30.0718 63.5602 30.1545 63.354 30.3194 63.2964C30.6496 63.156 31.4003 63.4199 31.5657 63.3785C31.706 63.3377 31.6647 63.0489 31.8132 63.0489C32.1597 63.032 32.3822 63.2714 32.5062 63.2714C32.6303 63.2714 32.9349 63.255 32.9763 63.1892C33.0176 63.1234 33.0339 62.4379 33.5045 62.1077C34.0164 61.7449 34.6436 61.9016 34.8101 61.9843C34.8101 62.1077 34.8264 62.4135 35.1566 62.4298C35.4868 62.4461 35.5195 62.3884 35.8094 62.4875C36.0994 62.5865 36.4448 62.4711 36.6015 62.9575C36.7418 62.9167 37.072 62.8753 36.9893 62.4048C37.1525 62.2813 37.2951 62.1986 37.6421 61.7117C37.7248 61.5882 37.8646 61.4479 37.9724 61.2662C38.2612 61.2662 38.6077 61.2085 39.0696 61.6127C38.9293 61.7117 38.8466 61.7759 38.8058 61.8765C38.9266 61.9962 39.0369 62.1259 39.1354 62.2644C39.2595 62.4276 39.3421 62.6278 39.4988 62.6692C39.8453 62.7682 40.4149 62.6278 41.0503 62.6692C41.6612 62.7105 42.1726 62.933 42.3956 63.0733C42.4783 63.0325 42.4783 63.0157 42.6845 63.057C42.8907 63.0984 43.0473 63.1147 42.8248 62.8508C42.9483 62.9085 43.0887 63.0325 43.2127 62.9085C43.3367 62.7845 43.4352 62.6033 43.7817 62.562C44.1283 62.5206 44.2523 62.5783 44.3926 62.2155C44.5743 61.7699 43.9471 61.7699 43.9471 61.7699C43.9471 61.7699 44.236 61.5055 44.558 61.159C44.9459 60.7962 45.3914 60.3256 45.4986 59.7479C45.6803 58.6833 44.6407 58.5435 44.6407 58.5435L39.5984 60.0949L33.4338 59.7892L28.1771 62.4053L28.1738 62.4048Z" fill="#927D49"/>
<path fill-rule="evenodd" clip-rule="evenodd" d="M23.6424 47.8396C23.6424 47.8396 23.4792 48.0457 23.3785 48.5326C23.2779 49.0195 23.3209 48.9618 23.2382 49.3084C23.1555 49.6549 22.1399 53.1044 22.5207 54.268C22.9015 55.4316 23.5608 55.8608 23.9731 56.8014C24.0558 57.0076 24.1363 57.1316 24.1793 57.3133C24.3197 57.9237 24.1962 58.3942 24.361 59.0052C24.4187 59.2113 24.5677 59.4507 24.7902 59.6982C25.2798 60.2096 26.0779 60.6965 26.4222 61.043C26.9086 61.5549 27.6022 62.595 28.4851 62.6935C28.9556 62.7511 29.6242 62.5531 30.1769 62.2235C30.6665 61.9177 30.969 61.4891 31.4825 61.2443C31.8454 61.0626 32.2332 60.9967 32.5798 60.9141C33.2978 60.7737 33.9501 60.7509 34.338 60.8314C34.932 60.9554 36.335 61.3846 37.1124 61.3846C37.7198 61.3748 38.3239 61.2917 38.9114 61.1371C40.0913 60.7906 41.5188 60.196 42.4599 59.9321C43.0126 59.7689 43.4581 59.726 43.9124 59.6269C44.6881 59.4453 45.3398 59.1977 45.7114 58.7272C45.4639 58.4383 45.1587 57.9928 43.5076 58.0091C41.6346 58.0504 39.4722 59.09 38.4076 59.2554C37.343 59.4208 36.8812 59.5606 35.6925 59.1314C34.5273 58.6978 34.4887 58.4111 34.4887 58.4111C34.4887 58.4111 33.2652 57.5554 32.7533 55.374C32.2414 53.1925 32.7533 51.6029 34.0823 50.0923C34.4288 49.7044 34.3461 49.3579 34.3461 49.3579C34.3461 49.3579 35.2209 48.1779 34.9815 47.0731C34.7177 45.9753 33.0258 46.1983 33.0258 46.1983L23.6429 47.8396H23.6424Z" fill="#6E6342"/>
<path fill-rule="evenodd" clip-rule="evenodd" d="M25.0552 51.5117C24.9825 51.6485 24.9482 51.8025 24.9562 51.9573C24.9725 52.1798 25.0389 52.4686 25.7069 53.1209C26.2765 53.6899 26.1525 54.3253 26.1525 54.3253C26.1525 54.3253 26.4392 54.383 27.2171 54.019C27.828 53.7302 28.0331 54.2421 28.0331 54.2421C28.2109 54.1488 28.4037 54.0873 28.6026 54.0604C28.7829 54.0437 28.9574 53.9881 29.114 53.8972C29.114 53.8972 29.8321 54.6316 30.4593 54.9781C31.0289 55.2838 31.3591 55.49 31.6398 55.2838C31.9036 55.1021 31.9036 54.7306 31.8868 54.5657C31.8213 54.4136 31.7384 54.2696 31.6398 54.1365C31.4581 53.8727 31.1692 53.567 31.1502 53.3205C31.1088 52.7515 31.5794 52.0742 31.4799 51.9094C31.3803 51.7446 31.0098 51.7032 30.0937 52.0334C29.145 52.3468 25.0514 51.5134 25.0514 51.5134L25.0552 51.5117Z" fill="#39331F"/>
<path fill-rule="evenodd" clip-rule="evenodd" d="M27.2172 55.201C27.2172 55.201 26.7472 54.7555 26.912 52.5931C27.1115 52.5902 27.3108 52.6095 27.5061 52.6507C27.5061 52.6507 27.7623 54.3262 27.2172 55.201Z" fill="#292311"/>
<path fill-rule="evenodd" clip-rule="evenodd" d="M23.867 46.1888C23.9326 46.1402 23.9934 46.0856 24.0487 46.0256C23.8855 46.3307 23.1321 47.552 23.743 49.4751C24.3539 51.3894 25.8885 52.8169 27.7784 52.8832C29.6682 52.9496 30.6616 52.0248 31.7975 50.6387C32.243 50.086 32.7549 49.3924 33.2086 48.9224C33.8853 48.1874 34.4136 47.9812 34.4136 47.2719C34.4136 45.8194 32.9279 45.1671 30.741 44.5154C28.5541 43.8637 26.5816 43.9442 25.5583 44.3903C24.5601 44.8766 24.1309 45.3885 23.8665 46.1893L23.867 46.1888Z" fill="#252211"/>
<path fill-rule="evenodd" clip-rule="evenodd" d="M30.8883 55.8527L31.0515 55.77C31.0515 55.77 31.0923 55.1172 31.3567 55.1346C31.6206 55.176 31.7446 55.523 31.7196 55.6465C31.7033 55.77 31.6374 55.9767 31.3731 55.9517C31.0265 55.9599 30.8867 55.8527 30.8867 55.8527H30.8883Z" fill="#3F3824"/>
<path fill-rule="evenodd" clip-rule="evenodd" d="M30.1543 53.0796C30.1543 53.0796 30.3175 53.0219 30.5171 53.2199C30.6803 53.2199 31.3919 53.1373 31.6149 53.2776C31.838 53.418 31.9038 53.5414 31.9038 53.5414C31.9038 53.5414 31.0704 53.7231 30.6162 53.5414C30.1543 53.3848 30.1543 53.0796 30.1543 53.0796V53.0796Z" fill="#2D2815"/>
<path fill-rule="evenodd" clip-rule="evenodd" d="M33.8263 53.2033C33.8263 53.1619 33.3808 52.8568 32.9102 52.7572C32.8275 52.7409 32.8107 52.7986 32.747 52.7986C32.7057 52.7822 32.6893 52.6582 32.6893 52.6582L32.4217 52.7991C32.4217 52.7991 32.3804 52.8568 32.5207 52.9623C32.6442 53.0613 32.8509 53.144 32.9086 53.3088C32.9662 53.4737 32.9662 53.5313 32.9913 53.5563C33.0076 53.5727 33.2964 53.5563 33.4368 53.4737C33.5772 53.391 33.8415 53.2561 33.8247 53.2017L33.8263 53.2033Z" fill="#82764F"/>
<path fill-rule="evenodd" clip-rule="evenodd" d="M29.6602 54.8785C29.6602 54.8785 29.7423 54.3095 30.2955 54.2844C30.8646 54.2431 30.9723 54.7958 30.9723 54.7958L30.6421 55.126C30.6421 55.1178 30.3946 54.7713 29.6629 54.8785H29.6602Z" fill="#2D2816"/>
<path fill-rule="evenodd" clip-rule="evenodd" d="M33.2489 52.4273C33.2489 52.4273 32.9432 52.7575 32.267 52.8565C32.2094 52.7738 32.0853 52.609 32.267 52.3451C32.4487 52.0813 32.6549 51.9986 32.8611 52.0807C32.952 52.0955 33.0369 52.136 33.1056 52.1974C33.1744 52.2588 33.2241 52.3385 33.2489 52.4273V52.4273Z" fill="#574F35"/>
<path fill-rule="evenodd" clip-rule="evenodd" d="M34.4953 52.832C34.5121 52.7493 34.4545 52.733 34.4953 52.6916C34.5361 52.6503 34.7597 52.5682 34.801 52.609C34.8173 52.6258 34.801 52.6916 34.801 52.7722C34.801 52.8527 34.801 52.9354 34.7597 52.9947C34.702 53.0773 34.5372 53.1187 34.4545 53.0942C34.3718 53.0697 34.3555 52.9539 34.3555 52.931C34.3963 52.9147 34.4953 52.8733 34.4953 52.832ZM35.9042 51.9409C35.9042 51.8996 36.0446 51.8169 36.1273 51.8169C36.2508 51.8169 36.2508 51.9159 36.2676 51.9409C36.3084 51.9572 36.3084 51.9241 36.3498 51.9986C36.3911 52.0731 36.4493 52.2048 36.4074 52.2875C36.3655 52.3701 36.2013 52.4273 36.1605 52.4109C36.1028 52.3696 35.9211 51.9986 35.9042 51.9409V51.9409Z" fill="#82764F"/>
<path fill-rule="evenodd" clip-rule="evenodd" d="M33.0684 53.022C33.0684 53.022 33.2501 53.0628 33.4976 53.2695C33.4149 53.3272 33.2909 53.393 33.2909 53.393C33.2909 53.393 33.2745 53.2032 33.0684 53.0215V53.022Z" fill="#6E6342"/>
<path fill-rule="evenodd" clip-rule="evenodd" d="M32.6628 51.206C32.6214 51.1652 32.7863 51.0662 32.8853 51.0825C32.9843 51.0989 33.0256 51.1652 33.1328 51.1815C33.24 51.1979 33.2568 51.1402 33.296 51.0989C33.3352 51.0575 33.4777 51.0825 33.5022 51.0989C33.5174 51.117 33.5312 51.1363 33.5435 51.1565C33.5452 51.1251 33.5534 51.0944 33.5676 51.0663C33.5817 51.0383 33.6015 51.0134 33.6257 50.9933C33.6573 50.9701 33.6938 50.9543 33.7324 50.9471C33.7711 50.9399 33.8108 50.9416 33.8487 50.952C33.865 51.0096 33.9477 51.2158 33.9314 51.2572C33.9151 51.2985 33.6675 51.3567 33.6257 51.3148C33.667 51.4144 33.8487 51.6205 33.8732 51.6613C33.8977 51.7021 33.6915 51.8017 33.6093 51.7854C33.494 51.7772 32.7841 51.3643 32.6606 51.2077L32.6628 51.206ZM33.7437 49.8362C33.7284 49.7947 33.6992 49.7597 33.661 49.7372C33.6034 49.7209 33.4135 49.7372 33.4135 49.8362C33.4135 49.9352 33.5767 50.489 33.76 50.7773C33.9667 51.0662 34.1065 51.305 34.2469 51.3714C34.291 51.3915 34.341 51.3941 34.3869 51.3787C34.4329 51.3634 34.4713 51.3312 34.4944 51.2887C34.5107 51.2474 34.5521 50.9422 34.5358 50.2241C34.5194 49.506 34.4944 48.813 34.4531 48.7716C34.4117 48.7303 34.2469 48.7308 34.1892 48.813C34.1316 48.8951 33.76 49.7127 33.7432 49.8362H33.7437Z" fill="#585136"/>
<path fill-rule="evenodd" clip-rule="evenodd" d="M33.0106 54.0614C33.0106 54.0614 32.7218 53.8797 32.4411 54.0038C32.1772 54.1278 32.1936 54.6147 32.1936 54.6147C32.2529 54.6379 32.317 54.6463 32.3804 54.6391C32.4437 54.6319 32.5043 54.6093 32.5569 54.5733C32.7386 54.4499 32.9693 54.2437 33.0106 54.062V54.0614Z" fill="#574F35"/>
<path fill-rule="evenodd" clip-rule="evenodd" d="M33.5538 54.7141C33.5375 54.5509 33.3906 54.5509 33.3906 54.4666C33.4007 54.4263 33.4241 54.3905 33.4569 54.3651C33.4898 54.3396 33.5302 54.326 33.5718 54.3262C33.6545 54.3262 33.735 54.4252 33.8362 54.4894C33.9352 54.5471 34.0837 54.6526 34.1 54.7783C34.1163 54.904 33.9368 55.2483 33.7372 55.2483C33.5375 55.2483 33.5968 54.8768 33.5555 54.7119L33.5538 54.7141ZM35.1467 54.4911C35.1467 54.4911 34.8164 54.5901 34.8409 54.4911C34.8654 54.392 34.9405 54.3676 35.0477 54.3676C35.1021 54.3106 35.1753 54.2752 35.2538 54.268C35.2987 54.2658 35.3428 54.2806 35.3773 54.3094C35.3773 54.3094 35.6004 54.2104 35.6662 54.268C35.732 54.3257 35.683 54.3257 35.7238 54.392C35.7758 54.4657 35.8099 54.5505 35.8234 54.6396C35.8234 54.7054 35.5759 54.8457 35.3773 54.8213C35.1467 54.7718 35.1875 54.5324 35.1467 54.4911V54.4911ZM37.0692 54.1195C37.0692 54.1195 37.1682 54.1772 37.086 54.2435C37.0284 54.3012 36.7395 54.4067 36.4914 54.4252C36.2439 54.4252 36.0214 54.466 36.0214 54.3839C36.0214 54.3017 36.2276 54.1364 36.3511 54.095C36.3758 54.064 36.4073 54.039 36.4431 54.0218C36.4789 54.0047 36.5181 53.9959 36.5578 53.996C36.6568 53.996 37.0441 53.9547 37.1518 53.9384C37.2508 53.9215 37.3335 53.9792 37.2753 54.0618C37.2508 54.1195 37.0692 54.1195 37.0692 54.1195V54.1195ZM37.6387 51.5714C37.6387 51.5714 37.5147 51.8352 37.3749 51.8352C37.2345 51.8189 37.2345 51.7776 37.2345 51.7362C37.2345 51.6786 37.3749 51.5301 37.358 51.4887C37.3172 51.4887 37.2177 51.4887 37.2345 51.3897C37.2345 51.307 37.3749 51.208 37.4984 51.2265C37.5917 51.1498 37.7079 51.1064 37.8286 51.103C37.9689 51.103 38.0924 51.1438 38.0924 51.2265C38.0924 51.3092 37.9292 51.4904 37.8694 51.5322C37.8036 51.5981 37.7209 51.641 37.6387 51.573V51.5714ZM35.757 56.4484C35.757 56.4484 35.5938 56.4652 35.5938 56.5474C35.5938 56.5887 35.6346 56.5887 35.6928 56.5642C35.7264 56.5623 35.7596 56.5567 35.7918 56.5474C35.8082 56.5642 35.8082 56.6464 35.9322 56.6464C36.034 56.6326 36.1322 56.599 36.2211 56.5474C36.3201 56.5066 36.4028 56.4647 36.4028 56.3842C36.3614 56.2438 36.2787 56.1775 36.1552 56.1775C36.0919 56.1735 36.0289 56.1878 35.9735 56.2188C35.9735 56.2188 35.9322 56.1361 35.7918 56.2188C35.6515 56.3015 35.6678 56.3015 35.7092 56.3428C35.7831 56.4087 35.7587 56.4516 35.7587 56.4516L35.757 56.4484ZM34.8246 57.3068C34.8246 57.2655 35.0308 57.1828 35.0885 57.2078C35.1461 57.2241 35.3109 57.5375 35.3109 57.5706C35.3109 57.612 35.1048 57.711 35.0221 57.711C34.9394 57.711 34.7996 57.5706 34.7996 57.5478C34.7996 57.5315 34.8986 57.507 34.8986 57.4901C34.9231 57.4493 34.8246 57.3498 34.8246 57.3084V57.3068ZM34.1718 56.1018C34.2132 56.0855 34.2132 56.0442 34.2708 56.0028C34.2889 55.9908 34.3094 55.9831 34.3309 55.9803C34.3524 55.9775 34.3743 55.9796 34.3949 55.9865C34.4094 55.9606 34.4295 55.9382 34.4538 55.9209C34.4781 55.9037 34.5059 55.8921 34.5352 55.887C34.6342 55.8706 34.7169 55.887 34.6984 55.9283C34.6984 56.0523 34.7811 56.1345 34.7811 56.2335C34.7811 56.3325 34.7234 56.4565 34.5173 56.5392C34.3111 56.5969 34.0304 56.5969 33.989 56.5806C33.9477 56.5642 33.9063 56.3989 33.9477 56.3162C33.989 56.2335 34.1044 56.1432 34.1707 56.1018H34.1718Z" fill="#82764F"/>
<path fill-rule="evenodd" clip-rule="evenodd" d="M34.4343 56.1577C34.4343 56.1577 34.2939 56.2404 34.2939 56.2817C34.2815 56.3217 34.276 56.3634 34.2776 56.4052C34.2776 56.4297 34.4593 56.3889 34.4838 56.3639C34.492 56.3476 34.4343 56.2007 34.4343 56.1577Z" fill="#6E6342"/>
<path fill-rule="evenodd" clip-rule="evenodd" d="M33.208 55.7697C33.2902 55.7866 33.4305 55.7697 33.5377 55.811C33.6204 55.8524 33.678 55.9351 33.5953 56.0341C33.5126 56.1331 33.4321 56.2816 33.2488 56.2566C33.0426 56.2403 32.8446 56.1331 32.8446 56.0504C32.8411 55.9981 32.8481 55.9456 32.8651 55.896C32.8821 55.8465 32.9088 55.8007 32.9436 55.7615C33.0263 55.6957 33.0671 55.7371 33.2075 55.7697H33.208Z" fill="#585136"/>
<path fill-rule="evenodd" clip-rule="evenodd" d="M33.1086 55.8525C33.1086 55.8525 32.8447 56.0587 32.7783 56.1583C32.6957 56.2573 32.2915 56.7686 32.168 56.8758C32.209 56.8035 32.2557 56.7345 32.3078 56.6696C32.1446 56.774 32.0222 56.9313 31.9613 57.1152C31.8622 57.4209 32.5145 57.5857 32.9432 57.7098C33.3718 57.8338 33.5378 57.873 33.5378 57.873C33.3799 57.6358 33.2444 57.3845 33.133 57.1222C32.9698 56.7344 32.8855 56.693 32.9927 56.5113C33.0754 56.3296 33.1994 56.2061 33.1994 56.0658C33.1499 55.9352 33.1086 55.8525 33.1086 55.8525Z" fill="#574F35"/>
<path fill-rule="evenodd" clip-rule="evenodd" d="M23.7003 56.5048C23.7604 56.5158 23.8219 56.5158 23.882 56.5048C24.0055 56.4879 25.2931 56.0152 26.6385 56.1C27.6456 56.1609 28.6438 56.3249 29.6174 56.5896C31.3092 57.0352 33.4134 57.9181 34.7751 58.4218C35.1379 58.5616 35.4931 58.8097 35.7543 58.9082C36.7944 59.3129 36.8352 59.3129 37.4461 59.4201C38.1642 59.5191 38.8986 59.2797 39.6662 59.1149C40.6067 58.9082 42.2159 58.8092 43.627 58.603C44.0833 58.5397 44.5334 58.4376 44.9723 58.2978C44.9723 58.2978 43.8501 59.4201 41.1594 59.8243C40.0719 59.9894 38.9667 60.0033 37.8753 59.8656C37.0169 59.7829 36.4479 59.6589 36.0186 59.5354C35.5318 59.395 34.533 59.0235 33.3035 58.7194C32.4451 58.4964 31.4877 58.3315 30.3904 58.1253C27.6835 57.6298 24.7459 57.0607 23.6992 56.508L23.7003 56.5048Z" fill="#252211"/>
<path fill-rule="evenodd" clip-rule="evenodd" d="M20.6648 51.4048C20.012 51.9575 19.3195 52.4857 18.6433 52.9971L16.6049 54.5632C15.9119 55.0746 15.2351 55.6028 14.5415 56.1147C13.8479 56.6266 13.1554 57.113 12.4199 57.5835C13.0727 57.0308 13.7652 56.5189 14.4583 56.0157C15.1513 55.5125 15.87 55.0191 16.5385 54.5088L18.5769 52.9405C19.2781 52.4291 19.9549 51.9009 20.6648 51.4059V51.4048ZM17.0586 57.1815C17.0586 57.1815 17.793 56.5706 18.7091 55.7127C19.8477 54.6487 21.2425 53.2865 21.6881 53.0395L17.0581 57.1821L17.0586 57.1815Z" fill="#CFB66C"/>
<path fill-rule="evenodd" clip-rule="evenodd" d="M17.0586 57.1809C17.422 56.8181 17.8099 56.4634 18.1977 56.1163L18.7918 55.6049C18.9735 55.4417 19.1802 55.2584 19.3613 55.0767C19.7242 54.7139 20.0794 54.3255 20.4423 53.9544C20.6221 53.7679 20.8123 53.5915 21.0118 53.4262C21.1116 53.3379 21.2224 53.263 21.3415 53.2032C21.4411 53.1455 21.5482 53.04 21.688 53.0215C21.6059 53.1455 21.5069 53.2032 21.4242 53.3103C21.3252 53.393 21.2425 53.492 21.1604 53.5742C20.9787 53.7559 20.7725 53.9207 20.5908 54.0861C20.2029 54.4163 19.7987 54.7389 19.4108 55.0843C19.023 55.4298 18.6601 55.8024 18.2717 56.1489C17.8512 56.5042 17.4633 56.8507 17.0586 57.1825V57.1809ZM21.9938 53.8799C21.9938 53.8799 19.3037 56.5129 18.7504 56.9415L21.9938 53.8799Z" fill="#CFB66C"/>
<path fill-rule="evenodd" clip-rule="evenodd" d="M21.9933 53.8799C21.7513 54.16 21.4919 54.4246 21.2165 54.6719L20.4005 55.4477C20.1367 55.7115 19.8886 55.9759 19.6084 56.2398C19.3196 56.4873 19.0557 56.7294 18.75 56.9578L19.5421 56.1821C19.8064 55.9183 20.0953 55.6958 20.376 55.4314L21.1681 54.6556C21.4401 54.3836 21.7045 54.1192 21.9933 53.8799V53.8799ZM22.1168 55.3073C21.8689 55.9994 21.5767 56.6748 21.2421 57.3294C20.549 58.716 19.5094 60.4487 19.0552 61.3321L22.1168 55.3073Z" fill="#CFB66C"/>
<path fill-rule="evenodd" clip-rule="evenodd" d="M22.116 55.3081C22.116 55.6133 22.0333 55.8777 21.9343 56.1415C21.8378 56.4056 21.7277 56.6645 21.6046 56.9173C21.4806 57.1648 21.3402 57.4292 21.1999 57.6685C21.0595 57.9079 20.8947 58.1549 20.7707 58.4029L19.9373 59.8717C19.6484 60.3613 19.3677 60.8536 19.0625 61.3242C19.2687 60.796 19.5494 60.3009 19.8138 59.8141C20.1026 59.3245 20.3665 58.8349 20.6298 58.3284C20.7583 58.076 20.874 57.8173 20.9763 57.5532C21.0998 57.2888 21.2233 57.0413 21.3228 56.8019C21.4463 56.5381 21.5453 56.29 21.6693 56.0512C21.8092 55.795 21.925 55.5475 22.1149 55.3081H22.116Z" fill="#CFB66C"/>
<path fill-rule="evenodd" clip-rule="evenodd" d="M25.0546 62.0747C25.0546 62.0747 24.2386 63.1556 24.3202 64.5254C24.5427 63.8079 24.8234 62.7101 25.0546 62.0747ZM25.8303 63.1584C25.8303 63.1584 25.5415 66.096 25.3021 67.5403C25.6405 65.8707 25.7063 66.0111 25.8303 63.1584ZM31.2355 67.7138C31.2355 67.7138 30.0142 71.3042 29.9892 72.3019C30.2536 71.2759 30.765 69.1799 31.2355 67.7111V67.7138Z" fill="#DEC270"/>
<path fill-rule="evenodd" clip-rule="evenodd" d="M34.0918 61.853C34.0918 61.853 36.0725 65.1208 37.5582 67.9099C37.1562 66.5064 36.2313 63.9322 34.0918 61.853Z" fill="#CBAF59"/>
<path fill-rule="evenodd" clip-rule="evenodd" d="M39.4141 66.6636C40.5016 68.5859 41.4823 70.5667 42.3517 72.597C42.1868 71.194 41.7408 68.7928 39.4141 66.6636Z" fill="#E3C677"/>
<path fill-rule="evenodd" clip-rule="evenodd" d="M55.0611 71.4817C55.3908 71.2755 56.0431 70.1527 56.6126 69.8726C57.1816 69.5837 57.6109 69.526 58.1228 68.9565C58.6341 68.3619 58.7756 67.999 59.8967 67.529C61.4651 66.8517 60.3863 65.977 60.3863 65.977C60.5591 65.8073 60.7438 65.6502 60.939 65.507C61.3438 65.2018 61.8138 64.8302 61.773 64.178C61.7153 63.0807 61.5092 61.4879 60.6094 60.5636C61.4841 60.3819 63.1591 60.2584 64.1998 59.9946C65.4042 59.6889 65.9574 59.2597 65.9574 59.2597C65.9574 59.2597 65.2644 58.0797 66.3867 56.8916C67.5089 55.7035 68.425 54.9936 69.1018 53.6646C68.326 53.5656 67.1434 53.1533 64.1253 54.3C64.2882 54.3767 64.4454 54.4648 64.5958 54.5639C64.5958 54.5639 62.7391 55.0758 62.0624 55.6453C60.8819 56.6436 60.7334 57.4607 59.4545 58.0716C58.1755 58.6825 56.8879 58.5171 55.8238 59.0121C54.7598 59.5072 54.6025 59.9282 54.2141 60.1099C54.2968 60.2089 54.1978 60.3738 54.3545 60.5141C54.2555 60.6545 53.6777 61.5951 53.0918 61.5951C53.1495 61.8181 53.6446 61.9829 53.6446 61.9829C53.6446 61.9829 53.2817 62.2473 52.3574 62.3131C52.8275 62.8027 53.2735 63.3364 54.503 64.1121C54.404 64.3183 53.9911 64.624 54.1565 65.0119C54.3382 65.3998 54.8093 65.928 56.6899 66.3572C55.7324 66.398 54.6107 66.6211 53.0995 66.4149C51.5893 66.2332 51.3418 66.126 50.4094 66.3572C50.5084 66.4562 50.7722 66.4562 51.0034 66.7201C50.7559 66.7364 49.2044 66.5384 48.6762 67.232C48.1235 67.9495 47.8841 69.13 47.9255 69.9221C47.6366 70.0624 47.3559 70.3099 47.4963 70.8218C47.6366 71.3337 48.371 71.4986 48.8416 71.8201C49.3116 72.1666 49.3529 72.2901 49.799 72.208C50.269 72.1089 50.9621 71.6389 51.3668 71.6389C51.7716 71.6389 52.0599 71.9441 52.0599 71.9441C52.0599 71.9441 53.1577 71.4159 53.2648 71.5149C53.3638 71.6139 53.2812 72.2493 53.3883 72.3483C53.4971 72.4228 54.7336 71.6884 55.0638 71.4817H55.0611Z" fill="#ECD592"/>
<path d="M65.4851 50.9471C65.1804 50.7837 64.8599 50.6312 64.5275 50.4896C68.1403 48.2123 69.6365 45.6087 69.7513 40.6581C69.7622 40.4456 69.7622 40.2278 69.7622 40.0045C69.7622 37.8802 69.4738 36.061 68.908 34.5195C68.3481 32.9781 67.5102 31.7144 66.4106 30.7067C64.5063 28.9583 61.813 27.9724 58.3907 27.602C57.3188 27.4822 56.1767 27.4277 54.9629 27.4277H36.3223V74.9518H55.2404C56.3394 74.9518 57.3895 74.8968 58.3907 74.783C65.8937 73.9387 70.5027 69.8754 70.6605 61.7705C70.6714 61.6229 70.6714 61.4764 70.6714 61.3239C70.6703 55.6804 68.9074 52.7446 65.4851 50.9471ZM59.9734 41.8074C59.8216 45.228 58.1289 46.9982 54.5434 46.9982H45.9576V35.6742H54.4726C58.1017 35.6742 59.9898 37.3518 59.9898 41.2627C59.9898 41.4479 59.9843 41.6331 59.9734 41.8074ZM60.8821 61.4323C60.7025 65.6209 58.5588 66.7048 54.7556 66.7048H45.9576V55.1031H54.7556C58.5914 55.1031 60.8984 56.9168 60.8984 60.8331C60.8984 61.0401 60.8929 61.2416 60.8821 61.4323Z" fill="white" fill-opacity="0.65"/>
<path d="M36.3224 27.4277H31.1465V35.8974H36.3224V27.4277Z" fill="white" fill-opacity="0.65"/>
<path d="M46.2027 21.3105H39.6152V27.4275H46.2027V21.3105Z" fill="white" fill-opacity="0.65"/>
<path d="M55.6148 21.3105H49.0273V27.4275H55.6148V21.3105Z" fill="white" fill-opacity="0.65"/>
<path d="M46.2027 74.9517H39.6152V80.5981H46.2027V74.9517Z" fill="white" fill-opacity="0.65"/>
<path d="M55.6148 74.9517H49.0273V80.5981H55.6148V74.9517Z" fill="white" fill-opacity="0.65"/>
<path d="M36.3224 66.9526H31.1465V74.9517H36.3224V66.9526Z" fill="white" fill-opacity="0.65"/>
</g>
<defs>
<clipPath id="clip0_777_17561">
<rect width="102" height="102" fill="white"/>
</clipPath>
</defs>
</svg>
